# Blender 3.3.2
# www.blender.org
mtllib SM_Chest_01.mtl
o SM_Chest_01
v -0.607471 0.000502 0.295607
v -0.607471 0.071511 0.295607
v -0.607471 0.000502 -0.295607
v -0.607471 0.071511 -0.295607
v 0.607471 0.000502 0.295607
v 0.607471 0.071511 0.295607
v 0.607471 0.000502 -0.295607
v 0.607471 0.071511 -0.295607
v -0.607471 0.000502 -0.219340
v -0.607471 0.000502 0.219340
v -0.607471 0.071511 0.219340
v -0.607471 0.071511 -0.219340
v 0.607471 0.000502 0.219340
v 0.607471 0.000502 -0.219340
v 0.607471 0.071511 -0.219340
v 0.607471 0.071511 0.219340
v 0.538217 0.000502 -0.295607
v -0.538217 0.000502 -0.295607
v -0.538217 0.071511 -0.295607
v 0.538217 0.071511 -0.295607
v -0.538217 0.000502 0.295607
v 0.538217 0.000502 0.295607
v 0.538217 0.071511 0.295607
v -0.538217 0.071511 0.295607
v -0.538217 0.071511 -0.219340
v 0.538217 0.071511 -0.219340
v -0.538217 0.071511 0.219340
v 0.538217 0.071511 0.219340
v 0.538217 0.000502 -0.219340
v -0.538217 0.000502 -0.219340
v 0.538217 0.000502 0.219340
v -0.538217 0.000502 0.219340
v -0.616869 -0.000004 -0.213256
v -0.616869 0.383728 -0.213256
v -0.616869 -0.000004 -0.300735
v -0.616869 0.383728 -0.300735
v -0.532713 -0.000004 -0.213256
v -0.532713 0.383728 -0.213256
v -0.532713 -0.000004 -0.300735
v -0.532713 0.383728 -0.300735
v 0.616869 -0.000004 -0.213256
v 0.616869 0.383728 -0.213256
v 0.616869 -0.000004 -0.300735
v 0.616869 0.383728 -0.300735
v 0.532713 -0.000004 -0.213256
v 0.532713 0.383728 -0.213256
v 0.532713 -0.000004 -0.300735
v 0.532713 0.383728 -0.300735
v -0.616869 -0.000004 0.213256
v -0.616869 0.383728 0.213256
v -0.616869 -0.000004 0.300735
v -0.616869 0.383728 0.300735
v -0.532713 -0.000004 0.213256
v -0.532713 0.383728 0.213256
v -0.532713 -0.000004 0.300735
v -0.532713 0.383728 0.300735
v 0.616869 -0.000004 0.213256
v 0.616869 0.383728 0.213256
v 0.616869 -0.000004 0.300735
v 0.616869 0.383728 0.300735
v 0.532713 -0.000004 0.213256
v 0.532713 0.383728 0.213256
v 0.532713 -0.000004 0.300735
v 0.532713 0.383728 0.300735
v -0.607471 0.310591 0.295607
v -0.607471 0.381600 0.295607
v -0.607471 0.310591 -0.295607
v -0.607471 0.381600 -0.295607
v 0.607471 0.310591 0.295607
v 0.607471 0.381600 0.295607
v 0.607471 0.310591 -0.295607
v 0.607471 0.381600 -0.295607
v -0.607471 0.310591 -0.219340
v -0.607471 0.310591 0.219340
v -0.607471 0.381600 0.219340
v -0.607471 0.381600 -0.219340
v 0.607471 0.310591 0.219340
v 0.607471 0.310591 -0.219340
v 0.607471 0.381600 -0.219340
v 0.607471 0.381600 0.219340
v 0.538217 0.310591 -0.295607
v -0.538217 0.310591 -0.295607
v -0.538217 0.381600 -0.295607
v 0.538217 0.381600 -0.295607
v -0.538217 0.310591 0.295607
v 0.538217 0.310591 0.295607
v 0.538217 0.381600 0.295607
v -0.538217 0.381600 0.295607
v -0.538217 0.381600 -0.219340
v 0.538217 0.381600 -0.219340
v -0.538217 0.381600 0.219340
v 0.538217 0.381600 0.219340
v 0.538217 0.310591 -0.219340
v -0.538217 0.310591 -0.219340
v 0.538217 0.310591 0.219340
v -0.538217 0.310591 0.219340
v -0.045473 0.305906 0.298951
v -0.045473 0.382738 0.298951
v -0.045473 0.305906 0.260917
v -0.045473 0.382738 0.260917
v 0.045473 0.305906 0.298951
v 0.045473 0.382738 0.298951
v 0.045473 0.305906 0.260917
v 0.045473 0.382738 0.260917
v -0.592066 0.008774 0.275817
v -0.551725 0.319232 0.233493
v -0.592066 0.008774 -0.275817
v -0.551725 0.319232 -0.233493
v 0.592066 0.008774 0.275817
v 0.551725 0.319232 0.233493
v 0.592066 0.008774 -0.275817
v 0.551725 0.319232 -0.233493
v -0.592066 0.319232 0.275817
v -0.592066 0.319232 -0.275817
v 0.592066 0.319232 -0.275817
v 0.592066 0.319232 0.275817
v -0.551725 0.029783 0.233493
v -0.551725 0.029783 -0.233493
v 0.551725 0.029783 -0.233493
v 0.551725 0.029783 0.233493
vn -1.0000 -0.0000 -0.0000
vn -0.0000 -0.0000 -1.0000
vn 1.0000 -0.0000 -0.0000
vn -0.0000 -0.0000 1.0000
vn -0.0000 -1.0000 -0.0000
vn -0.0000 1.0000 -0.0000
vt 0.454736 0.937112
vt 0.541948 0.951976
vt 0.377279 0.651661
vt 0.434537 0.937112
vt 0.379298 0.651661
vt 0.521749 0.951976
vt 0.920299 0.669759
vt 0.377279 0.819832
vt 0.111628 0.958534
vt 0.940497 0.669759
vt 0.379298 0.819832
vt 0.091430 0.958534
vt 0.928830 0.895167
vt 0.198285 0.651696
vt 0.820331 0.954773
vt 0.908631 0.895167
vt 0.454736 0.655750
vt 0.800133 0.954773
vt 0.952452 0.693938
vt 0.198285 0.819867
vt 0.928830 0.940574
vt 0.932253 0.693938
vt 0.908631 0.940574
vt 0.454736 0.823922
vt 0.920299 0.648065
vt 0.998991 0.466657
vt 0.377279 0.798138
vt 0.541948 0.930282
vt 0.998991 0.591440
vt 0.377279 0.673355
vt 0.379298 0.673355
vt 0.521749 0.930282
vt 0.978792 0.591440
vt 0.940497 0.648065
vt 0.379298 0.798138
vt 0.978792 0.466657
vt 0.928830 0.916861
vt 0.198285 0.673390
vt 0.998748 0.127811
vt 0.198285 0.798173
vt 0.928830 0.918880
vt 0.998748 0.252594
vt 0.908631 0.918880
vt 0.978549 0.252594
vt 0.454736 0.802227
vt 0.908631 0.916861
vt 0.978549 0.127811
vt 0.454736 0.677444
vt 0.952452 0.713637
vt 0.217984 0.819867
vt 0.821748 0.307201
vt 0.625960 0.915752
vt 0.357579 0.819832
vt 0.821748 0.001009
vt 0.111628 0.938835
vt 0.625960 0.609561
vt 0.398997 0.819832
vt 0.845461 0.307201
vt 0.091430 0.938835
vt 0.646158 0.609561
vt 0.932253 0.713637
vt 0.435036 0.823922
vt 0.845461 0.001009
vt 0.646158 0.915752
vt 0.454736 0.956811
vt 0.357579 0.651661
vt 0.827749 0.339855
vt 0.287360 0.639668
vt 0.217984 0.651696
vt 0.827749 0.646046
vt 0.820331 0.935073
vt 0.287360 0.945858
vt 0.435036 0.655750
vt 0.825730 0.646047
vt 0.800133 0.935073
vt 0.267162 0.945858
vt 0.434537 0.956811
vt 0.398997 0.651661
vt 0.825730 0.339855
vt 0.267162 0.639668
vt 0.398997 0.798138
vt 0.823767 0.307201
vt 0.978792 0.464638
vt 0.603742 0.609561
vt 0.435036 0.802227
vt 0.823767 0.001009
vt 0.603742 0.915752
vt 0.956574 0.593459
vt 0.398997 0.673355
vt 0.804036 0.339855
vt 0.648177 0.915752
vt 0.978792 0.339855
vt 0.435036 0.677444
vt 0.804036 0.646046
vt 0.648177 0.609561
vt 0.956574 0.718242
vt 0.217984 0.798173
vt 0.800054 0.307201
vt 0.623941 0.915752
vt 0.976773 0.593459
vt 0.357579 0.798138
vt 0.800054 0.001010
vt 0.998990 0.464638
vt 0.623941 0.609561
vt 0.217984 0.673390
vt 0.849443 0.646046
vt 0.668376 0.609561
vt 0.976773 0.718242
vt 0.357579 0.673355
vt 0.849443 0.339855
vt 0.668376 0.915752
vt 0.998991 0.339855
vt 0.167038 0.902375
vt 0.715963 0.932626
vt 0.593862 0.891516
vt 0.167038 0.793222
vt 0.715963 0.823474
vt 0.831444 0.309220
vt 0.191921 0.902375
vt 0.800133 0.933054
vt 0.593862 0.916399
vt 0.191921 0.793222
vt 0.800133 0.823902
vt 0.831444 0.334103
vt 0.326619 0.924657
vt 0.692025 0.932626
vt 0.569924 0.891516
vt 0.326619 0.815504
vt 0.692025 0.823474
vt 0.855383 0.309220
vt 0.824071 0.933054
vt 0.301736 0.924657
vt 0.569924 0.916399
vt 0.824071 0.823902
vt 0.301736 0.815504
vt 0.855383 0.334103
vt 0.033343 0.902375
vt 0.931193 0.873328
vt 0.033343 0.904394
vt 0.033343 0.793222
vt 0.931193 0.764175
vt 0.805487 0.334103
vt 0.008459 0.902375
vt 0.735461 0.823474
vt 0.008459 0.904394
vt 0.008459 0.793222
vt 0.735461 0.932626
vt 0.805487 0.309220
vt 0.165019 0.793222
vt 0.955131 0.873328
vt 0.033343 0.928332
vt 0.165019 0.902375
vt 0.955131 0.764175
vt 0.829426 0.334103
vt 0.759400 0.823474
vt 0.140135 0.793222
vt 0.008459 0.928332
vt 0.759400 0.932626
vt 0.140135 0.902375
vt 0.829426 0.309220
vt 0.353522 0.924657
vt 0.952592 0.221334
vt 0.140135 0.928332
vt 0.353522 0.815504
vt 0.952592 0.112181
vt 0.779530 0.334103
vt 0.328638 0.924657
vt 0.454736 0.935093
vt 0.165019 0.928332
vt 0.328638 0.815504
vt 0.454736 0.825940
vt 0.779530 0.309220
vt 0.761419 0.908720
vt 0.976531 0.221334
vt 0.140135 0.904394
vt 0.761419 0.799568
vt 0.976531 0.112181
vt 0.803468 0.334103
vt 0.430797 0.935093
vt 0.786302 0.908720
vt 0.165019 0.904394
vt 0.430797 0.825940
vt 0.786302 0.799568
vt 0.803468 0.309220
vt 0.035362 0.902375
vt 0.976531 0.332505
vt 0.752628 0.309220
vt 0.035362 0.793222
vt 0.976531 0.223352
vt 0.035362 0.928332
vt 0.060245 0.902375
vt 0.952592 0.110162
vt 0.777511 0.309220
vt 0.060245 0.793222
vt 0.952592 0.001009
vt 0.060245 0.928332
vt 0.379298 0.821851
vt 0.952592 0.332505
vt 0.752628 0.333158
vt 0.379298 0.931003
vt 0.952592 0.223352
vt 0.035362 0.904394
vt 0.976531 0.110162
vt 0.404181 0.821851
vt 0.777511 0.333158
vt 0.976531 0.001009
vt 0.404181 0.931003
vt 0.060245 0.904394
vt 0.384482 0.933022
vt 0.482867 0.930282
vt 0.759400 0.653284
vt 0.384482 0.953221
vt 0.401016 0.651661
vt 0.482867 0.950481
vt 0.333323 0.948370
vt 0.759400 0.821455
vt 0.755161 0.934645
vt 0.353522 0.948370
vt 0.401016 0.819832
vt 0.755161 0.954844
vt 0.008459 0.930351
vt 0.717982 0.653284
vt 0.781617 0.953187
vt 0.008459 0.950549
vt 0.715963 0.653284
vt 0.761419 0.953187
vt 0.692025 0.934645
vt 0.717982 0.821455
vt 0.301736 0.926675
vt 0.692025 0.954844
vt 0.321935 0.926675
vt 0.715963 0.821455
vt 0.333323 0.926675
vt 0.956574 0.591440
vt 0.759400 0.799761
vt 0.461173 0.930282
vt 0.956574 0.466657
vt 0.759400 0.674978
vt 0.401016 0.673355
vt 0.461173 0.950481
vt 0.976773 0.466657
vt 0.353522 0.926675
vt 0.401016 0.798138
vt 0.976773 0.591440
vt 0.030154 0.930351
vt 0.717982 0.674978
vt 0.956574 0.464638
vt 0.717982 0.799761
vt 0.301736 0.948370
vt 0.956574 0.339855
vt 0.321935 0.948370
vt 0.976773 0.339855
vt 0.715963 0.799761
vt 0.030154 0.950549
vt 0.976773 0.464638
vt 0.715963 0.674978
vt 0.711724 0.934645
vt 0.737682 0.821455
vt 0.798035 0.307201
vt 0.222726 0.945858
vt 0.739700 0.821455
vt 0.798035 0.001009
vt 0.735461 0.934645
vt 0.222726 0.639668
vt 0.420715 0.819832
vt 0.869174 0.307201
vt 0.735461 0.954844
vt 0.242925 0.639668
vt 0.711724 0.954844
vt 0.696264 0.821455
vt 0.869174 0.001009
vt 0.242925 0.945858
vt 0.404181 0.933022
vt 0.739700 0.653284
vt 0.851462 0.339855
vt 0.244944 0.945858
vt 0.737682 0.653284
vt 0.851462 0.646046
vt 0.781617 0.933488
vt 0.244944 0.639668
vt 0.696264 0.653284
vt 0.774322 0.307201
vt 0.761419 0.933488
vt 0.265143 0.639668
vt 0.404181 0.953221
vt 0.420715 0.651661
vt 0.774322 0.001009
vt 0.265143 0.945858
vt 0.420715 0.798138
vt 0.847480 0.307201
vt 0.978549 0.125792
vt 0.936516 0.307200
vt 0.696264 0.799761
vt 0.847480 0.001009
vt 0.936516 0.001009
vt 0.957150 0.764175
vt 0.420715 0.673355
vt 0.752628 0.001009
vt 0.940497 0.339855
vt 0.978549 0.001009
vt 0.696264 0.674978
vt 0.752628 0.307201
vt 0.940497 0.646046
vt 0.957150 0.888958
vt 0.737682 0.799761
vt 0.776341 0.307201
vt 0.916317 0.001009
vt 0.977349 0.764175
vt 0.739700 0.799761
vt 0.776341 0.001009
vt 0.998748 0.125792
vt 0.916317 0.307200
vt 0.737682 0.674978
vt 0.873156 0.646046
vt 0.920299 0.646046
vt 0.977348 0.888958
vt 0.739700 0.674978
vt 0.873156 0.339855
vt 0.920298 0.339855
vt 0.998748 0.001009
vt 0.073083 0.938835
vt 0.567905 0.891516
vt 0.663443 0.943640
vt 0.073083 0.960690
vt 0.546050 0.891516
vt 0.868220 0.309220
vt 0.062264 0.938835
vt 0.710166 0.314898
vt 0.652624 0.943640
vt 0.062264 0.960690
vt 0.710166 0.336753
vt 0.857401 0.309220
vt 0.748961 0.336753
vt 0.567905 0.917385
vt 0.663443 0.917771
vt 0.748961 0.314898
vt 0.546050 0.917385
vt 0.868220 0.335089
vt 0.684296 0.314898
vt 0.738142 0.336753
vt 0.652624 0.917771
vt 0.684296 0.336753
vt 0.738142 0.314898
vt 0.857401 0.335089
vt 0.593968 0.001009
vt 0.179648 0.338267
vt 0.435037 0.001009
vt 0.517370 0.339855
vt 0.717982 0.968346
vt 0.942517 0.351330
vt 0.603742 0.339855
vt 0.593968 0.157922
vt 0.001009 0.338267
vt 0.591949 0.001009
vt 0.717982 0.835513
vt 0.938534 0.326357
vt 0.519389 0.339855
vt 0.603742 0.472689
vt 0.682277 0.159941
vt 0.179648 0.675094
vt 0.435036 0.337836
vt 0.517370 0.653731
vt 0.978792 0.605498
vt 0.942516 0.665203
vt 0.686076 0.474708
vt 0.001009 0.675094
vt 0.682277 0.316853
vt 0.591949 0.337836
vt 0.938535 0.012484
vt 0.978792 0.738331
vt 0.519389 0.653731
vt 0.686076 0.607542
vt 0.682277 0.001009
vt 0.091338 0.338267
vt 0.729457 0.980385
vt 0.954555 0.339855
vt 0.682277 0.157922
vt 0.089319 0.338267
vt 0.729457 0.823474
vt 0.950574 0.337832
vt 0.089319 0.675094
vt 0.593968 0.316853
vt 0.950574 0.001009
vt 0.990267 0.750370
vt 0.593968 0.159941
vt 0.091338 0.675094
vt 0.990267 0.593459
vt 0.954555 0.676678
vt 0.435036 0.339855
vt 0.355560 0.323772
vt 0.686076 0.339855
vt 0.222726 0.323772
vt 0.601723 0.339855
vt 0.686076 0.472689
vt 0.222726 0.637649
vt 0.601723 0.653731
vt 0.603742 0.607542
vt 0.435036 0.653731
vt 0.355560 0.637649
vt 0.603742 0.474708
s 1
usemtl M_Chest_01
f 9/25/1 12/34/1 4/10/1 3/7/1
f 17/49/2 20/61/2 8/22/2 7/19/2
f 13/37/3 16/46/3 6/16/3 5/13/3
f 21/65/4 24/77/4 2/4/4 1/1/4
f 31/105/5 13/38/5 5/14/5 22/69/5
f 27/89/6 11/31/6 2/5/6 24/78/6
f 19/57/6 4/11/6 12/35/6 25/81/6
f 25/81/6 12/35/6 11/31/6 27/89/6
f 17/50/5 7/20/5 14/40/5 29/97/5
f 29/97/5 14/40/5 13/38/5 31/105/5
f 7/21/3 8/23/3 15/43/3 14/41/3
f 14/42/3 15/44/3 16/47/3 13/39/3
f 1/2/1 2/6/1 11/32/1 10/28/1
f 10/29/1 11/33/1 12/36/1 9/26/1
f 9/27/5 30/101/5 32/109/5 10/30/5
f 3/8/5 18/53/5 30/101/5 9/27/5
f 18/54/5 17/51/5 29/98/5 30/102/5
f 15/45/6 26/85/6 28/93/6 16/48/6
f 8/24/6 20/62/6 26/85/6 15/45/6
f 20/63/6 19/58/6 25/82/6 26/86/6
f 16/48/6 28/93/6 23/73/6 6/17/6
f 28/94/6 27/90/6 24/79/6 23/74/6
f 10/30/5 32/109/5 21/66/5 1/3/5
f 32/110/5 31/106/5 22/70/5 21/67/5
f 5/15/4 6/18/4 23/75/4 22/71/4
f 22/72/4 23/76/4 24/80/4 21/68/4
f 3/9/2 4/12/2 19/59/2 18/55/2
f 18/56/2 19/60/2 20/64/2 17/52/2
f 28/95/2 31/107/2 32/111/2 27/91/2
f 27/92/3 32/112/3 30/103/3 25/83/3
f 25/84/4 30/104/4 29/99/4 26/87/4
f 26/88/1 29/100/1 31/108/1 28/96/1
f 33/113/1 34/116/1 36/122/1 35/119/1
f 35/120/2 36/123/2 40/134/2 39/131/2
f 39/132/3 40/135/3 38/128/3 37/125/3
f 37/126/4 38/129/4 34/117/4 33/114/4
f 35/121/5 39/133/5 37/127/5 33/115/5
f 40/136/6 36/124/6 34/118/6 38/130/6
f 41/137/3 43/143/3 44/146/3 42/140/3
f 43/144/2 47/155/2 48/158/2 44/147/2
f 47/156/1 45/149/1 46/152/1 48/159/1
f 45/150/4 41/138/4 42/141/4 46/153/4
f 43/145/5 41/139/5 45/151/5 47/157/5
f 48/160/6 46/154/6 42/142/6 44/148/6
f 49/161/1 51/167/1 52/170/1 50/164/1
f 51/168/4 55/179/4 56/182/4 52/171/4
f 55/180/3 53/173/3 54/176/3 56/183/3
f 53/174/2 49/162/2 50/165/2 54/177/2
f 51/169/5 49/163/5 53/175/5 55/181/5
f 56/184/6 54/178/6 50/166/6 52/172/6
f 57/185/3 58/188/3 60/194/3 59/191/3
f 59/192/4 60/195/4 64/206/4 63/203/4
f 63/204/1 64/207/1 62/200/1 61/197/1
f 61/198/2 62/201/2 58/189/2 57/186/2
f 59/193/5 63/205/5 61/199/5 57/187/5
f 64/208/6 60/196/6 58/190/6 62/202/6
f 73/233/1 76/242/1 68/218/1 67/215/1
f 81/257/2 84/269/2 72/230/2 71/227/2
f 77/245/3 80/254/3 70/224/3 69/221/3
f 85/273/4 88/285/4 66/212/4 65/209/4
f 95/313/5 77/246/5 69/222/5 86/277/5
f 91/297/6 75/239/6 66/213/6 88/286/6
f 83/265/6 68/219/6 76/243/6 89/289/6
f 89/289/6 76/243/6 75/239/6 91/297/6
f 81/258/5 71/228/5 78/248/5 93/305/5
f 93/305/5 78/248/5 77/246/5 95/313/5
f 71/229/3 72/231/3 79/251/3 78/249/3
f 78/250/3 79/252/3 80/255/3 77/247/3
f 65/210/1 66/214/1 75/240/1 74/236/1
f 74/237/1 75/241/1 76/244/1 73/234/1
f 73/235/5 94/309/5 96/317/5 74/238/5
f 67/216/5 82/261/5 94/309/5 73/235/5
f 82/262/5 81/259/5 93/306/5 94/310/5
f 79/253/6 90/293/6 92/301/6 80/256/6
f 72/232/6 84/270/6 90/293/6 79/253/6
f 84/271/6 83/266/6 89/290/6 90/294/6
f 80/256/6 92/301/6 87/281/6 70/225/6
f 92/302/6 91/298/6 88/287/6 87/282/6
f 74/238/5 96/317/5 85/274/5 65/211/5
f 96/318/5 95/314/5 86/278/5 85/275/5
f 69/223/4 70/226/4 87/283/4 86/279/4
f 86/280/4 87/284/4 88/288/4 85/276/4
f 67/217/2 68/220/2 83/267/2 82/263/2
f 82/264/2 83/268/2 84/272/2 81/260/2
f 92/303/2 95/315/2 96/319/2 91/299/2
f 91/300/3 96/320/3 94/311/3 89/291/3
f 89/292/4 94/312/4 93/307/4 90/295/4
f 90/296/1 93/308/1 95/316/1 92/304/1
f 97/321/1 98/324/1 100/330/1 99/327/1
f 99/328/2 100/331/2 104/342/2 103/339/2
f 103/340/3 104/343/3 102/336/3 101/333/3
f 101/334/4 102/337/4 98/325/4 97/322/4
f 99/329/5 103/341/5 101/335/5 97/323/5
f 104/344/6 100/332/6 98/326/6 102/338/6
f 105/345/1 113/373/1 114/377/1 107/352/1
f 107/353/2 114/378/2 115/381/2 111/366/2
f 111/367/3 115/382/3 116/385/3 109/359/3
f 109/360/4 116/386/4 113/374/4 105/346/4
f 107/354/5 111/368/5 109/361/5 105/347/5
f 106/348/2 110/362/2 120/398/2 117/389/2
f 106/349/6 108/355/6 114/379/6 113/375/6
f 108/356/6 112/369/6 115/383/6 114/380/6
f 112/370/6 110/363/6 116/387/6 115/384/6
f 110/364/6 106/350/6 113/376/6 116/388/6
f 119/395/6 118/392/6 117/390/6 120/399/6
f 112/371/4 108/357/4 118/393/4 119/396/4
f 110/365/1 112/372/1 119/397/1 120/400/1
f 108/358/3 106/351/3 117/391/3 118/394/3
o SM_Chest_01_Top
v 0.589833 0.444791 -0.284561
v 0.589833 0.476661 -0.264625
v 0.589833 0.510003 -0.246781
v 0.589833 0.542307 -0.226866
v 0.589833 0.571487 -0.200714
v 0.589833 0.598410 -0.170056
v 0.589833 0.623075 -0.134892
v 0.589833 0.644617 -0.093491
v 0.589833 0.665121 -0.050018
v 0.589833 0.444791 0.285260
v 0.589833 0.688502 0.000350
v 0.589833 0.476661 0.265324
v 0.589833 0.510003 0.247481
v 0.589833 0.542307 0.227566
v 0.589833 0.571487 0.201414
v 0.589833 0.598410 0.170756
v 0.589833 0.623075 0.135591
v 0.589833 0.644617 0.094191
v 0.589833 0.665121 0.050718
v -0.589886 0.444791 -0.284561
v -0.589886 0.476661 -0.264625
v -0.589886 0.510003 -0.246781
v -0.589886 0.542307 -0.226866
v -0.589886 0.571487 -0.200714
v -0.589886 0.598410 -0.170056
v -0.589886 0.623075 -0.134892
v -0.589886 0.644617 -0.093491
v -0.589886 0.665121 -0.050018
v -0.589886 0.444791 0.285260
v -0.589886 0.688502 0.000350
v -0.589886 0.476661 0.265324
v -0.589886 0.510003 0.247481
v -0.589886 0.542307 0.227566
v -0.589886 0.571487 0.201414
v -0.589886 0.598410 0.170756
v -0.589886 0.623075 0.135591
v -0.589886 0.644617 0.094191
v -0.589886 0.665121 0.050718
v 0.564335 0.655777 -0.047841
v 0.564335 0.678147 0.000350
v 0.564335 0.444791 -0.272245
v 0.564335 0.475464 -0.253171
v 0.564335 0.507364 -0.236098
v 0.564335 0.538272 -0.217044
v 0.564335 0.566191 -0.192023
v 0.564335 0.591950 -0.162690
v 0.564335 0.615549 -0.129046
v 0.564335 0.636160 -0.089435
v 0.564335 0.655777 0.048541
v 0.564335 0.444791 0.272944
v 0.564335 0.475464 0.253870
v 0.564335 0.507364 0.236798
v 0.564335 0.538272 0.217743
v 0.564335 0.566191 0.192722
v 0.564335 0.591950 0.163389
v 0.564335 0.615549 0.129745
v 0.564335 0.636160 0.090134
v -0.564387 0.655777 -0.047841
v -0.564387 0.678147 0.000350
v -0.564387 0.444791 -0.272245
v -0.564387 0.475464 -0.253171
v -0.564387 0.507364 -0.236098
v -0.564387 0.538272 -0.217044
v -0.564387 0.566191 -0.192023
v -0.564387 0.591950 -0.162690
v -0.564387 0.615549 -0.129046
v -0.564387 0.636160 -0.089435
v -0.564387 0.655777 0.048541
v -0.564387 0.444791 0.272944
v -0.564387 0.475464 0.253870
v -0.564387 0.507364 0.236798
v -0.564387 0.538272 0.217743
v -0.564387 0.566191 0.192722
v -0.564387 0.591950 0.163389
v -0.564387 0.615549 0.129745
v -0.564387 0.636160 0.090134
v -0.618435 0.383773 0.306185
v -0.618435 0.456064 0.306185
v -0.618435 0.383773 -0.305485
v -0.618435 0.456064 -0.305485
v 0.618435 0.383773 0.306185
v 0.618435 0.456064 0.306185
v 0.618435 0.383773 -0.305485
v 0.618435 0.456064 -0.305485
v -0.618435 0.383773 -0.226580
v -0.618435 0.383773 0.227279
v -0.618435 0.456064 0.227279
v -0.618435 0.456064 -0.226580
v 0.618435 0.383773 0.227279
v 0.618435 0.383773 -0.226580
v 0.618435 0.456064 -0.226580
v 0.618435 0.456064 0.227279
v 0.547931 0.383773 -0.305485
v -0.547931 0.383773 -0.305485
v -0.547931 0.456064 -0.305485
v 0.547931 0.456064 -0.305485
v -0.547931 0.383773 0.306185
v 0.547931 0.383773 0.306185
v 0.547931 0.456064 0.306185
v -0.547931 0.456064 0.306185
v -0.547931 0.456064 -0.226580
v 0.547931 0.456064 -0.226580
v -0.547931 0.456064 0.227279
v 0.547931 0.456064 0.227279
v 0.547931 0.383773 -0.226580
v -0.547931 0.383773 -0.226580
v 0.547931 0.383773 0.227279
v -0.547931 0.383773 0.227279
v -0.617480 0.455944 -0.231751
v -0.617480 0.455944 -0.304700
v -0.533240 0.455944 -0.231751
v -0.533240 0.455944 -0.304700
v -0.533240 0.488177 -0.217441
v -0.533240 0.513693 -0.203409
v -0.533240 0.537989 -0.186941
v -0.533240 0.560245 -0.166402
v -0.533240 0.581209 -0.143282
v -0.533240 0.600880 -0.117581
v -0.533240 0.618511 -0.087808
v -0.533240 0.634922 -0.055600
v -0.617480 0.488177 -0.217441
v -0.617480 0.513693 -0.203409
v -0.617480 0.537989 -0.186941
v -0.617480 0.560245 -0.166402
v -0.617480 0.581209 -0.143282
v -0.617480 0.600880 -0.117581
v -0.617480 0.618511 -0.087808
v -0.617480 0.634922 -0.055600
v -0.617480 0.490165 -0.283355
v -0.617480 0.525864 -0.264250
v -0.617480 0.560451 -0.242927
v -0.617480 0.591694 -0.214927
v -0.617480 0.620520 -0.182101
v -0.617480 0.646929 -0.144451
v -0.617480 0.669994 -0.100124
v -0.617480 0.691947 -0.053579
v -0.533240 0.490165 -0.283355
v -0.533240 0.525864 -0.264250
v -0.533240 0.560451 -0.242927
v -0.533240 0.591694 -0.214927
v -0.533240 0.620520 -0.182101
v -0.533240 0.646929 -0.144451
v -0.533240 0.669994 -0.100124
v -0.533240 0.691947 -0.053579
v -0.238213 0.455944 -0.231751
v -0.238213 0.455944 -0.304700
v -0.153974 0.455944 -0.231751
v -0.153974 0.455944 -0.304700
v -0.153974 0.488177 -0.217441
v -0.153974 0.513693 -0.203409
v -0.153974 0.537989 -0.186941
v -0.153974 0.560245 -0.166402
v -0.153974 0.581209 -0.143282
v -0.153974 0.600880 -0.117581
v -0.153974 0.618511 -0.087808
v -0.153974 0.634922 -0.055600
v -0.238213 0.488177 -0.217441
v -0.238213 0.513693 -0.203409
v -0.238213 0.537989 -0.186941
v -0.238213 0.560245 -0.166402
v -0.238213 0.581209 -0.143282
v -0.238213 0.600880 -0.117581
v -0.238213 0.618511 -0.087808
v -0.238213 0.634922 -0.055600
v -0.238213 0.490165 -0.283355
v -0.238213 0.525864 -0.264250
v -0.238213 0.560451 -0.242927
v -0.238213 0.591694 -0.214927
v -0.238213 0.620520 -0.182101
v -0.238213 0.646929 -0.144451
v -0.238213 0.669994 -0.100124
v -0.238213 0.691947 -0.053579
v -0.153974 0.490165 -0.283355
v -0.153974 0.525864 -0.264250
v -0.153974 0.560451 -0.242927
v -0.153974 0.591694 -0.214927
v -0.153974 0.620520 -0.182101
v -0.153974 0.646929 -0.144451
v -0.153974 0.669994 -0.100124
v -0.153974 0.691947 -0.053579
v 0.617480 0.455944 -0.231751
v 0.617480 0.455944 -0.304700
v 0.533241 0.455944 -0.231751
v 0.533241 0.455944 -0.304700
v 0.533241 0.488177 -0.217441
v 0.533241 0.513693 -0.203409
v 0.533241 0.537989 -0.186941
v 0.533241 0.560245 -0.166402
v 0.533241 0.581209 -0.143282
v 0.533241 0.600880 -0.117581
v 0.533241 0.618511 -0.087808
v 0.533241 0.634922 -0.055600
v 0.617480 0.488177 -0.217441
v 0.617480 0.513693 -0.203409
v 0.617480 0.537989 -0.186941
v 0.617480 0.560245 -0.166402
v 0.617480 0.581209 -0.143282
v 0.617480 0.600880 -0.117581
v 0.617480 0.618511 -0.087808
v 0.617480 0.634922 -0.055600
v 0.617480 0.490165 -0.283355
v 0.617480 0.525864 -0.264250
v 0.617480 0.560451 -0.242927
v 0.617480 0.591694 -0.214927
v 0.617480 0.620520 -0.182101
v 0.617480 0.646929 -0.144451
v 0.617480 0.669994 -0.100124
v 0.617480 0.691947 -0.053579
v 0.533241 0.490165 -0.283355
v 0.533241 0.525864 -0.264250
v 0.533241 0.560451 -0.242927
v 0.533241 0.591694 -0.214927
v 0.533241 0.620520 -0.182101
v 0.533241 0.646929 -0.144451
v 0.533241 0.669994 -0.100124
v 0.533241 0.691947 -0.053579
v 0.238213 0.455944 -0.231751
v 0.238213 0.455944 -0.304700
v 0.153974 0.455944 -0.231751
v 0.153974 0.455944 -0.304700
v 0.153974 0.488177 -0.217441
v 0.153974 0.513693 -0.203409
v 0.153974 0.537989 -0.186941
v 0.153974 0.560245 -0.166402
v 0.153974 0.581209 -0.143282
v 0.153974 0.600880 -0.117581
v 0.153974 0.618511 -0.087808
v 0.153974 0.634922 -0.055600
v 0.238213 0.488177 -0.217441
v 0.238213 0.513693 -0.203409
v 0.238213 0.537989 -0.186941
v 0.238213 0.560245 -0.166402
v 0.238213 0.581209 -0.143282
v 0.238213 0.600880 -0.117581
v 0.238213 0.618511 -0.087808
v 0.238213 0.634922 -0.055600
v 0.238213 0.490165 -0.283355
v 0.238213 0.525864 -0.264250
v 0.238213 0.560451 -0.242927
v 0.238213 0.591694 -0.214927
v 0.238213 0.620520 -0.182101
v 0.238213 0.646929 -0.144451
v 0.238213 0.669994 -0.100124
v 0.238213 0.691947 -0.053579
v 0.153974 0.490165 -0.283355
v 0.153974 0.525864 -0.264250
v 0.153974 0.560451 -0.242927
v 0.153974 0.591694 -0.214927
v 0.153974 0.620520 -0.182101
v 0.153974 0.646929 -0.144451
v 0.153974 0.669994 -0.100124
v 0.153974 0.691947 -0.053579
v -0.617480 0.455944 0.232451
v -0.617480 0.455944 0.305399
v -0.533240 0.455944 0.232451
v -0.533240 0.455944 0.305399
v -0.533240 0.655408 0.000350
v -0.533240 0.716980 0.000350
v -0.617480 0.655408 0.000350
v -0.617480 0.716980 0.000350
v -0.533240 0.488177 0.218141
v -0.533240 0.513693 0.204108
v -0.533240 0.537989 0.187641
v -0.533240 0.560245 0.167102
v -0.533240 0.581209 0.143981
v -0.533240 0.600880 0.118280
v -0.533240 0.618511 0.088507
v -0.533240 0.634922 0.056299
v -0.617480 0.488177 0.218141
v -0.617480 0.513693 0.204108
v -0.617480 0.537989 0.187641
v -0.617480 0.560245 0.167102
v -0.617480 0.581209 0.143981
v -0.617480 0.600880 0.118280
v -0.617480 0.618511 0.088507
v -0.617480 0.634922 0.056299
v -0.617480 0.490165 0.284054
v -0.617480 0.525864 0.264949
v -0.617480 0.560451 0.243626
v -0.617480 0.591694 0.215626
v -0.617480 0.620520 0.182801
v -0.617480 0.646929 0.145151
v -0.617480 0.669994 0.100824
v -0.617480 0.691947 0.054278
v -0.533240 0.490165 0.284054
v -0.533240 0.525864 0.264949
v -0.533240 0.560451 0.243626
v -0.533240 0.591694 0.215626
v -0.533240 0.620520 0.182801
v -0.533240 0.646929 0.145151
v -0.533240 0.669994 0.100824
v -0.533240 0.691947 0.054278
v -0.238213 0.455944 0.232451
v -0.238213 0.455944 0.305399
v -0.153974 0.455944 0.232451
v -0.153974 0.455944 0.305399
v -0.153974 0.655408 0.000350
v -0.153974 0.716980 0.000350
v -0.238213 0.655408 0.000350
v -0.238213 0.716980 0.000350
v -0.153974 0.488177 0.218141
v -0.153974 0.513693 0.204108
v -0.153974 0.537989 0.187641
v -0.153974 0.560245 0.167102
v -0.153974 0.581209 0.143981
v -0.153974 0.600880 0.118280
v -0.153974 0.618511 0.088507
v -0.153974 0.634922 0.056299
v -0.238213 0.488177 0.218141
v -0.238213 0.513693 0.204108
v -0.238213 0.537989 0.187641
v -0.238213 0.560245 0.167102
v -0.238213 0.581209 0.143981
v -0.238213 0.600880 0.118280
v -0.238213 0.618511 0.088507
v -0.238213 0.634922 0.056299
v -0.238213 0.490165 0.284054
v -0.238213 0.525864 0.264949
v -0.238213 0.560451 0.243626
v -0.238213 0.591694 0.215626
v -0.238213 0.620520 0.182801
v -0.238213 0.646929 0.145151
v -0.238213 0.669994 0.100824
v -0.238213 0.691947 0.054278
v -0.153974 0.490165 0.284054
v -0.153974 0.525864 0.264949
v -0.153974 0.560451 0.243626
v -0.153974 0.591694 0.215626
v -0.153974 0.620520 0.182801
v -0.153974 0.646929 0.145151
v -0.153974 0.669994 0.100824
v -0.153974 0.691947 0.054278
v 0.617480 0.455944 0.232451
v 0.617480 0.455944 0.305399
v 0.533241 0.455944 0.232451
v 0.533241 0.455944 0.305399
v 0.533241 0.655408 0.000350
v 0.533241 0.716980 0.000350
v 0.617480 0.655408 0.000350
v 0.617480 0.716980 0.000350
v 0.533241 0.488177 0.218141
v 0.533241 0.513693 0.204108
v 0.533241 0.537989 0.187641
v 0.533241 0.560245 0.167102
v 0.533241 0.581209 0.143981
v 0.533241 0.600880 0.118280
v 0.533241 0.618511 0.088507
v 0.533241 0.634922 0.056299
v 0.617480 0.488177 0.218141
v 0.617480 0.513693 0.204108
v 0.617480 0.537989 0.187641
v 0.617480 0.560245 0.167102
v 0.617480 0.581209 0.143981
v 0.617480 0.600880 0.118280
v 0.617480 0.618511 0.088507
v 0.617480 0.634922 0.056299
v 0.617480 0.490165 0.284054
v 0.617480 0.525864 0.264949
v 0.617480 0.560451 0.243626
v 0.617480 0.591694 0.215626
v 0.617480 0.620520 0.182801
v 0.617480 0.646929 0.145151
v 0.617480 0.669994 0.100824
v 0.617480 0.691947 0.054278
v 0.533241 0.490165 0.284054
v 0.533241 0.525864 0.264949
v 0.533241 0.560451 0.243626
v 0.533241 0.591694 0.215626
v 0.533241 0.620520 0.182801
v 0.533241 0.646929 0.145151
v 0.533241 0.669994 0.100824
v 0.533241 0.691947 0.054278
v 0.238213 0.455944 0.232451
v 0.238213 0.455944 0.305399
v 0.153974 0.455944 0.232451
v 0.153974 0.455944 0.305399
v 0.153974 0.655408 0.000350
v 0.153974 0.716980 0.000350
v 0.238213 0.655408 0.000350
v 0.238213 0.716980 0.000350
v 0.153974 0.488177 0.218141
v 0.153974 0.513693 0.204108
v 0.153974 0.537989 0.187641
v 0.153974 0.560245 0.167102
v 0.153974 0.581209 0.143981
v 0.153974 0.600880 0.118280
v 0.153974 0.618511 0.088507
v 0.153974 0.634922 0.056299
v 0.238213 0.488177 0.218141
v 0.238213 0.513693 0.204108
v 0.238213 0.537989 0.187641
v 0.238213 0.560245 0.167102
v 0.238213 0.581209 0.143981
v 0.238213 0.600880 0.118280
v 0.238213 0.618511 0.088507
v 0.238213 0.634922 0.056299
v 0.238213 0.490165 0.284054
v 0.238213 0.525864 0.264949
v 0.238213 0.560451 0.243626
v 0.238213 0.591694 0.215626
v 0.238213 0.620520 0.182801
v 0.238213 0.646929 0.145151
v 0.238213 0.669994 0.100824
v 0.238213 0.691947 0.054278
v 0.153974 0.490165 0.284054
v 0.153974 0.525864 0.264949
v 0.153974 0.560451 0.243626
v 0.153974 0.591694 0.215626
v 0.153974 0.620520 0.182801
v 0.153974 0.646929 0.145151
v 0.153974 0.669994 0.100824
v 0.153974 0.691947 0.054278
v -0.601024 0.657408 0.034290
v -0.601024 0.699238 0.034290
v -0.601024 0.657408 -0.033591
v -0.601024 0.699238 -0.033591
v 0.601024 0.657408 0.034290
v 0.601024 0.699238 0.034290
v 0.601024 0.657408 -0.033591
v 0.601024 0.699238 -0.033591
v -0.064658 0.381299 0.308830
v -0.064658 0.458207 0.308830
v -0.064658 0.381299 0.262071
v -0.064658 0.458207 0.262071
v 0.064658 0.381299 0.308830
v 0.064658 0.458207 0.308830
v 0.064658 0.381299 0.262071
v 0.064658 0.458207 0.262071
vn -0.0000 0.7107 -0.7035
vn -0.0000 0.5985 -0.8011
vn -0.0000 0.5985 0.8011
vn -0.0000 0.4985 0.8669
vn -0.0000 0.7862 -0.6180
vn -0.0000 0.7107 0.7035
vn -0.0000 0.8547 -0.5190
vn -0.0000 0.7862 0.6180
vn -0.0000 0.8959 -0.4442
vn -0.0000 1.0000 -0.0000
vn -0.0000 0.9057 -0.4238
vn -0.0000 0.8547 0.5190
vn -0.0000 0.5014 -0.8652
vn -0.0000 0.5303 -0.8478
vn -0.0000 0.8959 0.4442
vn -0.0000 0.9057 0.4238
vn -0.0000 0.4985 -0.8669
vn -0.0000 0.5014 0.8652
vn -0.0000 0.5303 0.8478
vn 1.0000 -0.0000 -0.0000
vn -1.0000 -0.0000 -0.0000
vn -0.0000 -0.7107 0.7035
vn -0.0000 -0.5985 0.8011
vn -0.0000 -0.5985 -0.8011
vn -0.0000 -0.4985 -0.8669
vn -0.0000 -0.7862 0.6180
vn -0.0000 -0.7107 -0.7035
vn -0.0000 -0.8547 0.5190
vn -0.0000 -0.7862 -0.6180
vn -0.0000 -0.8959 0.4442
vn -0.0000 -1.0000 -0.0000
vn -0.0000 -0.9057 0.4238
vn -0.0000 -0.8547 -0.5190
vn -0.0000 -0.5002 0.8659
vn -0.0000 -0.5281 0.8492
vn -0.0000 -0.8959 -0.4442
vn -0.0000 -0.9057 -0.4238
vn -0.0000 -0.4985 0.8669
vn -0.0000 -0.5002 -0.8659
vn -0.0000 -0.9351 -0.3543
vn -0.0000 -0.0000 -1.0000
vn -0.0000 -0.0000 1.0000
vn -0.0000 -0.8384 0.5451
vn -0.0000 -0.9167 0.3996
vn -0.0000 -0.9390 0.3438
vn -0.0000 0.9070 -0.4210
vn -0.0000 0.5292 -0.8485
vn -0.0000 0.5008 -0.8656
vn -0.0000 -0.4442 0.8959
vn -0.0000 -0.5220 0.8529
vn -0.0000 -0.6214 0.7835
vn -0.0000 -0.7102 0.7040
vn -0.0000 -0.7681 0.6403
vn -0.0000 -0.8287 0.5596
vn -0.0000 -0.8762 0.4820
vn -0.0000 -0.8384 -0.5451
vn -0.0000 -0.9167 -0.3996
vn -0.0000 -0.9390 -0.3438
vn -0.0000 0.9070 0.4210
vn -0.0000 0.5292 0.8485
vn -0.0000 0.5008 0.8656
vn -0.0000 -0.4442 -0.8959
vn -0.0000 -0.5220 -0.8529
vn -0.0000 -0.6214 -0.7835
vn -0.0000 -0.7102 -0.7040
vn -0.0000 -0.7681 -0.6403
vn -0.0000 -0.8287 -0.5596
vn -0.0000 -0.8762 -0.4820
vt 0.001009 0.336248
vt 0.426834 0.649642
vt 0.794217 0.683458
vt 0.694245 0.815208
vt 0.011692 0.336248
vt 0.417778 0.643976
vt 0.022438 0.336248
vt 0.408303 0.638906
vt 0.033222 0.336248
vt 0.399123 0.633246
vt 0.044357 0.336248
vt 0.390831 0.625815
vt 0.055951 0.336248
vt 0.383180 0.617103
vt 0.068157 0.336248
vt 0.376171 0.607110
vt 0.081419 0.336248
vt 0.370050 0.595345
vt 0.095078 0.336248
vt 0.364223 0.582992
vt 0.220707 0.336248
vt 0.426834 0.487716
vt 0.694245 0.653284
vt 0.996793 0.593459
vt 0.110858 0.336248
vt 0.357579 0.568679
vt 0.210025 0.336248
vt 0.417778 0.493382
vt 0.199278 0.336248
vt 0.408303 0.498452
vt 0.188493 0.336248
vt 0.399123 0.504112
vt 0.177358 0.336248
vt 0.390831 0.511543
vt 0.165764 0.336248
vt 0.383181 0.520255
vt 0.153558 0.336248
vt 0.376171 0.530248
vt 0.140297 0.336248
vt 0.370050 0.542012
vt 0.126638 0.336248
vt 0.364223 0.554366
vt 0.001009 0.001009
vt 0.426834 0.323772
vt 0.429980 0.651661
vt 0.794217 0.947376
vt 0.011692 0.001009
vt 0.417778 0.329437
vt 0.022439 0.001009
vt 0.408303 0.334508
vt 0.033223 0.001009
vt 0.399123 0.340167
vt 0.044358 0.001010
vt 0.390831 0.347599
vt 0.055953 0.001010
vt 0.383181 0.356311
vt 0.068158 0.001010
vt 0.376171 0.366303
vt 0.081420 0.001010
vt 0.370050 0.378068
vt 0.095078 0.001010
vt 0.364223 0.390422
vt 0.220707 0.001010
vt 0.426834 0.485698
vt 0.429980 0.813585
vt 0.996793 0.857376
vt 0.110859 0.001010
vt 0.357579 0.404735
vt 0.210025 0.001010
vt 0.417778 0.480032
vt 0.199279 0.001010
vt 0.408303 0.474962
vt 0.188495 0.001010
vt 0.399123 0.469302
vt 0.177360 0.001010
vt 0.390831 0.461871
vt 0.165765 0.001010
vt 0.383181 0.453159
vt 0.153559 0.001010
vt 0.376171 0.443166
vt 0.140297 0.001010
vt 0.370050 0.431401
vt 0.126639 0.001010
vt 0.364223 0.419048
vt 0.312778 0.001010
vt 0.690653 0.221722
vt 0.327876 0.001011
vt 0.684296 0.235416
vt 0.222726 0.001009
vt 0.750609 0.157954
vt 0.789711 0.692788
vt 0.686999 0.811708
vt 0.232991 0.001009
vt 0.741893 0.163374
vt 0.243273 0.001009
vt 0.732827 0.168225
vt 0.253591 0.001010
vt 0.724045 0.173640
vt 0.264245 0.001010
vt 0.716111 0.180750
vt 0.275340 0.001010
vt 0.708791 0.189086
vt 0.287019 0.001010
vt 0.702085 0.198646
vt 0.299709 0.001010
vt 0.696228 0.209903
vt 0.342973 0.001011
vt 0.690653 0.249111
vt 0.433018 0.001012
vt 0.750609 0.312879
vt 0.686999 0.656784
vt 0.992286 0.602789
vt 0.422754 0.001012
vt 0.741892 0.307459
vt 0.412472 0.001012
vt 0.732827 0.302607
vt 0.402154 0.001012
vt 0.724044 0.297193
vt 0.391501 0.001012
vt 0.716111 0.290082
vt 0.380408 0.001012
vt 0.708791 0.281747
vt 0.368730 0.001012
vt 0.702085 0.272186
vt 0.356041 0.001011
vt 0.696228 0.260930
vt 0.312771 0.321752
vt 0.690653 0.092166
vt 0.327869 0.321752
vt 0.684296 0.078472
vt 0.222727 0.321751
vt 0.750609 0.155935
vt 0.422734 0.655160
vt 0.789772 0.941776
vt 0.232991 0.321751
vt 0.741892 0.150514
vt 0.243272 0.321751
vt 0.732827 0.145663
vt 0.253590 0.321751
vt 0.724044 0.140248
vt 0.264243 0.321751
vt 0.716111 0.133138
vt 0.275336 0.321751
vt 0.708791 0.124803
vt 0.287014 0.321752
vt 0.702085 0.115242
vt 0.299703 0.321752
vt 0.696228 0.103986
vt 0.342967 0.321753
vt 0.690653 0.064778
vt 0.433018 0.321753
vt 0.750609 0.001009
vt 0.422734 0.810085
vt 0.992347 0.851777
vt 0.422753 0.321753
vt 0.741893 0.006430
vt 0.412471 0.321753
vt 0.732828 0.011281
vt 0.402153 0.321753
vt 0.724045 0.016696
vt 0.391499 0.321753
vt 0.716111 0.023806
vt 0.380404 0.321753
vt 0.708791 0.032141
vt 0.368725 0.321753
vt 0.702085 0.041702
vt 0.356036 0.321753
vt 0.696228 0.052958
vt 0.182732 0.950894
vt 0.592346 0.918418
vt 0.289379 0.813485
vt 0.182732 0.930351
vt 0.804036 0.648065
vt 0.592346 0.938961
vt 0.603742 0.917771
vt 0.289379 0.639668
vt 0.032172 0.950894
vt 0.603742 0.938314
vt 0.804036 0.821883
vt 0.032172 0.930351
vt 0.650606 0.938314
vt 0.333487 0.639668
vt 0.932253 0.736199
vt 0.650606 0.917771
vt 0.331468 0.639668
vt 0.932253 0.715656
vt 0.160678 0.930351
vt 0.333487 0.813485
vt 0.545482 0.939947
vt 0.140135 0.930351
vt 0.545482 0.919404
vt 0.331468 0.813485
vt 0.626164 0.917771
vt 0.197441 0.950859
vt 0.289379 0.662090
vt 0.569923 0.918418
vt 0.197441 0.821886
vt 0.289379 0.791063
vt 0.804036 0.670488
vt 0.569923 0.938961
vt 0.217984 0.821886
vt 0.626164 0.938314
vt 0.804036 0.799460
vt 0.217984 0.950859
vt 0.628183 0.938314
vt 0.333487 0.662090
vt 0.929174 0.764175
vt 0.333487 0.791063
vt 0.567905 0.939947
vt 0.929174 0.893148
vt 0.567905 0.919404
vt 0.908631 0.893148
vt 0.331468 0.791062
vt 0.628183 0.917771
vt 0.908631 0.764175
vt 0.331468 0.662090
vt 0.160678 0.950386
vt 0.353522 0.813485
vt 0.710517 0.651265
vt 0.897737 0.651265
vt 0.309414 0.639668
vt 0.710517 0.339855
vt 0.052207 0.950894
vt 0.897737 0.339855
vt 0.824071 0.821883
vt 0.736977 0.339855
vt 0.052207 0.930351
vt 0.918280 0.339855
vt 0.140135 0.950386
vt 0.311433 0.813485
vt 0.736977 0.651265
vt 0.918280 0.651265
vt 0.162697 0.950894
vt 0.309414 0.813485
vt 0.712536 0.339855
vt 0.891736 0.001009
vt 0.353522 0.639668
vt 0.712536 0.651265
vt 0.952288 0.736199
vt 0.891736 0.312419
vt 0.311433 0.639668
vt 0.220707 0.649677
vt 0.952288 0.715656
vt 0.871193 0.312419
vt 0.162697 0.930351
vt 0.824071 0.648065
vt 0.220707 0.338267
vt 0.871193 0.001009
vt 0.824071 0.799460
vt 0.759400 0.339855
vt 0.356736 0.950823
vt 0.875175 0.339855
vt 0.311433 0.791063
vt 0.759400 0.651265
vt 0.875175 0.651265
vt 0.406200 0.821851
vt 0.824071 0.670488
vt 0.198285 0.338267
vt 0.914298 0.001009
vt 0.356736 0.821851
vt 0.311433 0.662090
vt 0.198285 0.649677
vt 0.914298 0.312419
vt 0.406200 0.950823
vt 0.353522 0.791063
vt 0.688094 0.651265
vt 0.895718 0.651265
vt 0.426743 0.821851
vt 0.309414 0.662090
vt 0.688094 0.339855
vt 0.377279 0.950823
vt 0.895718 0.339855
vt 0.353522 0.662090
vt 0.734958 0.651265
vt 0.893755 0.312419
vt 0.426743 0.950823
vt 0.309414 0.791063
vt 0.734958 0.339855
vt 0.893755 0.001009
vt 0.377279 0.821851
vt 0.895131 0.314438
vt 0.852363 0.779897
vt 0.854382 0.671811
vt 0.895131 0.335168
vt 0.838852 0.764175
vt 0.569923 0.889497
vt 0.871193 0.314438
vt 0.112159 0.775482
vt 0.878320 0.671811
vt 0.871193 0.335168
vt 0.098648 0.791203
vt 0.593862 0.889497
vt 0.107863 0.766428
vt 0.878320 0.681832
vt 0.104963 0.758678
vt 0.878320 0.690107
vt 0.102777 0.750629
vt 0.878320 0.698448
vt 0.101784 0.742080
vt 0.878320 0.707054
vt 0.101548 0.733214
vt 0.878320 0.715923
vt 0.102069 0.724032
vt 0.878320 0.725120
vt 0.103783 0.714350
vt 0.878320 0.734953
vt 0.106212 0.704369
vt 0.878320 0.745225
vt 0.848067 0.788951
vt 0.854382 0.681832
vt 0.845167 0.796701
vt 0.854382 0.690107
vt 0.842980 0.804750
vt 0.854382 0.698448
vt 0.841988 0.813299
vt 0.854382 0.707054
vt 0.841752 0.822164
vt 0.854382 0.715923
vt 0.842273 0.831347
vt 0.854382 0.725120
vt 0.843987 0.841029
vt 0.854382 0.734953
vt 0.846416 0.851010
vt 0.854382 0.745225
vt 0.835430 0.775114
vt 0.569923 0.878036
vt 0.831275 0.785843
vt 0.569923 0.866530
vt 0.827770 0.796844
vt 0.569923 0.854984
vt 0.826223 0.808666
vt 0.569923 0.843062
vt 0.826090 0.821079
vt 0.569923 0.830648
vt 0.827371 0.834084
vt 0.569923 0.817579
vt 0.830611 0.847910
vt 0.569923 0.803380
vt 0.834500 0.862007
vt 0.569923 0.788755
vt 0.095226 0.780265
vt 0.593862 0.878036
vt 0.091071 0.769536
vt 0.593862 0.866530
vt 0.087566 0.758534
vt 0.593862 0.854984
vt 0.086019 0.746713
vt 0.593862 0.843062
vt 0.085886 0.734300
vt 0.593862 0.830648
vt 0.087168 0.721294
vt 0.593862 0.817579
vt 0.090407 0.707469
vt 0.593862 0.803380
vt 0.094296 0.693372
vt 0.593862 0.788755
vt 0.736123 0.314898
vt 0.539612 0.671472
vt 0.906296 0.671811
vt 0.736123 0.335628
vt 0.526101 0.655750
vt 0.459090 0.889497
vt 0.712185 0.314898
vt 0.880655 0.862544
vt 0.930234 0.671811
vt 0.712185 0.335628
vt 0.867144 0.878266
vt 0.483028 0.889497
vt 0.876359 0.853490
vt 0.930234 0.681832
vt 0.873459 0.845740
vt 0.930234 0.690107
vt 0.871273 0.837691
vt 0.930234 0.698448
vt 0.870280 0.829142
vt 0.930234 0.707054
vt 0.870044 0.820277
vt 0.930234 0.715923
vt 0.870565 0.811095
vt 0.930234 0.725120
vt 0.872279 0.801412
vt 0.930234 0.734953
vt 0.874708 0.791431
vt 0.930234 0.745225
vt 0.535316 0.680526
vt 0.906296 0.681832
vt 0.532416 0.688276
vt 0.906296 0.690107
vt 0.530230 0.696325
vt 0.906296 0.698448
vt 0.529237 0.704874
vt 0.906296 0.707054
vt 0.529001 0.713739
vt 0.906296 0.715923
vt 0.529522 0.722922
vt 0.906296 0.725120
vt 0.531236 0.732604
vt 0.906296 0.734953
vt 0.533665 0.742585
vt 0.906296 0.745225
vt 0.522680 0.666689
vt 0.459090 0.878036
vt 0.518524 0.677418
vt 0.459090 0.866530
vt 0.515019 0.688420
vt 0.459090 0.854984
vt 0.513472 0.700241
vt 0.459090 0.843062
vt 0.513339 0.712654
vt 0.459090 0.830648
vt 0.514621 0.725660
vt 0.459090 0.817579
vt 0.517860 0.739485
vt 0.459090 0.803380
vt 0.521749 0.753582
vt 0.459090 0.788755
vt 0.863722 0.867327
vt 0.483028 0.878036
vt 0.859567 0.856598
vt 0.483028 0.866530
vt 0.856062 0.845597
vt 0.483028 0.854984
vt 0.854515 0.833775
vt 0.483028 0.843062
vt 0.854382 0.821362
vt 0.483028 0.830648
vt 0.855663 0.808357
vt 0.483028 0.817579
vt 0.858903 0.794532
vt 0.483028 0.803380
vt 0.862792 0.780434
vt 0.483028 0.788755
vt 0.138116 0.912878
vt 0.483028 0.754119
vt 0.904277 0.671811
vt 0.117387 0.912878
vt 0.469517 0.769841
vt 0.112159 0.910859
vt 0.138116 0.936816
vt 0.140451 0.692834
vt 0.880339 0.671811
vt 0.117387 0.936816
vt 0.126940 0.677113
vt 0.088221 0.910859
vt 0.136155 0.701888
vt 0.880339 0.681832
vt 0.133255 0.709638
vt 0.880339 0.690107
vt 0.131069 0.717687
vt 0.880339 0.698448
vt 0.130076 0.726236
vt 0.880339 0.707054
vt 0.129840 0.735102
vt 0.880339 0.715923
vt 0.130361 0.744284
vt 0.880339 0.725120
vt 0.132076 0.753966
vt 0.880339 0.734953
vt 0.134504 0.763947
vt 0.880339 0.745225
vt 0.478732 0.745066
vt 0.904277 0.681832
vt 0.475831 0.737315
vt 0.904277 0.690107
vt 0.473645 0.729266
vt 0.904277 0.698448
vt 0.472653 0.720718
vt 0.904277 0.707054
vt 0.472417 0.711852
vt 0.904277 0.715923
vt 0.472937 0.702670
vt 0.904277 0.725120
vt 0.474652 0.692988
vt 0.904277 0.734953
vt 0.477080 0.683007
vt 0.904277 0.745225
vt 0.466095 0.758903
vt 0.112159 0.899398
vt 0.461940 0.748173
vt 0.112159 0.887892
vt 0.458435 0.737172
vt 0.112159 0.876346
vt 0.456887 0.725351
vt 0.112159 0.864424
vt 0.456755 0.712937
vt 0.112159 0.852010
vt 0.458036 0.699932
vt 0.112159 0.838941
vt 0.461275 0.686107
vt 0.112159 0.824742
vt 0.465165 0.672009
vt 0.112159 0.810118
vt 0.123519 0.688051
vt 0.088221 0.899398
vt 0.119363 0.698780
vt 0.088221 0.887892
vt 0.115858 0.709782
vt 0.088221 0.876346
vt 0.114311 0.721603
vt 0.088221 0.864424
vt 0.114178 0.734016
vt 0.088221 0.852010
vt 0.115460 0.747022
vt 0.088221 0.838941
vt 0.118699 0.760847
vt 0.088221 0.824742
vt 0.122588 0.774945
vt 0.088221 0.810118
vt 0.785357 0.931469
vt 0.511320 0.754119
vt 0.850028 0.880285
vt 0.785357 0.910739
vt 0.497809 0.769841
vt 0.906612 0.881812
vt 0.761419 0.931469
vt 0.055575 0.692834
vt 0.826090 0.880285
vt 0.761419 0.910739
vt 0.042064 0.677113
vt 0.882674 0.881812
vt 0.051279 0.701888
vt 0.826090 0.890306
vt 0.048378 0.709638
vt 0.826090 0.898581
vt 0.046192 0.717687
vt 0.826090 0.906922
vt 0.045200 0.726236
vt 0.826090 0.915528
vt 0.044964 0.735102
vt 0.826090 0.924397
vt 0.045485 0.744284
vt 0.826090 0.933594
vt 0.047199 0.753966
vt 0.826090 0.943427
vt 0.049627 0.763947
vt 0.826090 0.953699
vt 0.507024 0.745066
vt 0.850028 0.890306
vt 0.504124 0.737315
vt 0.850028 0.898581
vt 0.501937 0.729266
vt 0.850028 0.906922
vt 0.500945 0.720718
vt 0.850028 0.915528
vt 0.500709 0.711852
vt 0.850028 0.924397
vt 0.501230 0.702670
vt 0.850028 0.933594
vt 0.502944 0.692988
vt 0.850028 0.943427
vt 0.505373 0.683007
vt 0.850028 0.953699
vt 0.494387 0.758903
vt 0.906612 0.870351
vt 0.490232 0.748173
vt 0.906612 0.858845
vt 0.486727 0.737172
vt 0.906612 0.847299
vt 0.485180 0.725351
vt 0.906612 0.835377
vt 0.485047 0.712937
vt 0.906612 0.822963
vt 0.486328 0.699932
vt 0.906612 0.809894
vt 0.489568 0.686107
vt 0.906612 0.795694
vt 0.493457 0.672009
vt 0.906612 0.781070
vt 0.038642 0.688051
vt 0.882674 0.870351
vt 0.034487 0.698780
vt 0.882674 0.858845
vt 0.030982 0.709782
vt 0.882674 0.847299
vt 0.029435 0.721603
vt 0.882674 0.835377
vt 0.029302 0.734016
vt 0.882674 0.822963
vt 0.030583 0.747022
vt 0.882674 0.809894
vt 0.033822 0.760847
vt 0.882674 0.795695
vt 0.037712 0.774945
vt 0.882674 0.781070
vt 0.082994 0.912878
vt 0.596197 0.754119
vt 0.906612 0.883831
vt 0.062264 0.912878
vt 0.582686 0.769841
vt 0.062264 0.793222
vt 0.082994 0.936816
vt 0.083867 0.692834
vt 0.882674 0.883831
vt 0.062264 0.936816
vt 0.070356 0.677113
vt 0.086202 0.793222
vt 0.878320 0.762156
vt 0.112159 0.688517
vt 0.949750 0.738218
vt 0.882674 0.974176
vt 0.083867 0.779800
vt 0.593862 0.771860
vt 0.098889 0.677113
vt 0.932253 0.738218
vt 0.086202 0.910859
vt 0.070597 0.791203
vt 0.854382 0.762156
vt 0.852363 0.866862
vt 0.949750 0.762156
vt 0.906612 0.974176
vt 0.596197 0.667154
vt 0.569923 0.771860
vt 0.839093 0.878266
vt 0.932253 0.762156
vt 0.062264 0.910859
vt 0.582927 0.655750
vt 0.079571 0.701888
vt 0.882674 0.893852
vt 0.076671 0.709638
vt 0.882674 0.902127
vt 0.074484 0.717687
vt 0.882674 0.910468
vt 0.073492 0.726236
vt 0.882674 0.919074
vt 0.073256 0.735102
vt 0.882674 0.927943
vt 0.073777 0.744284
vt 0.882674 0.937140
vt 0.075491 0.753966
vt 0.882674 0.946973
vt 0.077920 0.763947
vt 0.882674 0.957245
vt 0.591901 0.745066
vt 0.906612 0.893852
vt 0.589000 0.737315
vt 0.906612 0.902127
vt 0.586814 0.729266
vt 0.906612 0.910468
vt 0.585822 0.720718
vt 0.906612 0.919074
vt 0.585586 0.711852
vt 0.906612 0.927943
vt 0.586106 0.702670
vt 0.906612 0.937140
vt 0.587821 0.692988
vt 0.906612 0.946973
vt 0.590249 0.683007
vt 0.906612 0.957245
vt 0.579264 0.758903
vt 0.062264 0.804684
vt 0.575109 0.748173
vt 0.062264 0.816189
vt 0.571604 0.737172
vt 0.062264 0.827736
vt 0.570056 0.725351
vt 0.062264 0.839658
vt 0.569924 0.712937
vt 0.062264 0.852072
vt 0.571205 0.699932
vt 0.062264 0.865140
vt 0.574444 0.686107
vt 0.062264 0.879340
vt 0.578334 0.672009
vt 0.062264 0.893964
vt 0.066934 0.688051
vt 0.086202 0.804684
vt 0.062779 0.698780
vt 0.086202 0.816189
vt 0.059274 0.709782
vt 0.086202 0.827736
vt 0.057727 0.721603
vt 0.086202 0.839658
vt 0.057594 0.734016
vt 0.086202 0.852072
vt 0.058875 0.747022
vt 0.086202 0.865140
vt 0.062115 0.760847
vt 0.086202 0.879340
vt 0.066004 0.774944
vt 0.086202 0.893964
vt 0.921089 0.335168
vt 0.567905 0.754119
vt 0.508985 0.887970
vt 0.921089 0.314438
vt 0.554394 0.769841
vt 0.518009 0.771860
vt 0.897150 0.335168
vt 0.027283 0.692834
vt 0.485047 0.887970
vt 0.897150 0.314438
vt 0.013772 0.677113
vt 0.541947 0.771860
vt 0.930234 0.762156
vt 0.880655 0.775579
vt 0.645882 0.318872
vt 0.485047 0.978315
vt 0.027283 0.779800
vt 0.483028 0.771860
vt 0.867385 0.764175
vt 0.645882 0.336368
vt 0.541947 0.889497
vt 0.014013 0.791204
vt 0.906296 0.762156
vt 0.539612 0.758437
vt 0.669820 0.318872
vt 0.508985 0.978315
vt 0.567905 0.667154
vt 0.459090 0.771860
vt 0.526342 0.769841
vt 0.669820 0.336368
vt 0.518009 0.889497
vt 0.554635 0.655750
vt 0.022986 0.701888
vt 0.485047 0.897991
vt 0.020086 0.709638
vt 0.485047 0.906266
vt 0.017900 0.717687
vt 0.485047 0.914607
vt 0.016907 0.726236
vt 0.485047 0.923213
vt 0.016672 0.735102
vt 0.485047 0.932082
vt 0.017192 0.744284
vt 0.485047 0.941279
vt 0.018907 0.753966
vt 0.485047 0.951112
vt 0.021335 0.763947
vt 0.485047 0.961384
vt 0.563608 0.745066
vt 0.508985 0.897991
vt 0.560708 0.737315
vt 0.508985 0.906266
vt 0.558522 0.729266
vt 0.508985 0.914607
vt 0.557529 0.720718
vt 0.508985 0.923213
vt 0.557293 0.711852
vt 0.508985 0.932082
vt 0.557814 0.702670
vt 0.508985 0.941279
vt 0.559529 0.692988
vt 0.508985 0.951112
vt 0.561957 0.683006
vt 0.508985 0.961384
vt 0.550972 0.758903
vt 0.518009 0.783321
vt 0.546816 0.748173
vt 0.518009 0.794827
vt 0.543312 0.737172
vt 0.518009 0.806373
vt 0.541764 0.725351
vt 0.518009 0.818295
vt 0.541631 0.712937
vt 0.518009 0.830709
vt 0.542913 0.699932
vt 0.518009 0.843778
vt 0.546152 0.686107
vt 0.518009 0.857977
vt 0.550042 0.672009
vt 0.518009 0.872602
vt 0.010350 0.688051
vt 0.541947 0.783321
vt 0.006195 0.698780
vt 0.541948 0.794827
vt 0.002690 0.709782
vt 0.541947 0.806373
vt 0.001142 0.721603
vt 0.541948 0.818295
vt 0.001009 0.734016
vt 0.541948 0.830709
vt 0.002291 0.747022
vt 0.541948 0.843778
vt 0.005530 0.760847
vt 0.541948 0.857977
vt 0.009420 0.774945
vt 0.541948 0.872602
vt 0.187767 0.928332
vt 0.179648 0.692834
vt 0.931193 0.875347
vt 0.167038 0.928332
vt 0.166137 0.677113
vt 0.567905 0.771860
vt 0.187767 0.904394
vt 0.852363 0.746435
vt 0.955131 0.875347
vt 0.167038 0.904394
vt 0.838852 0.762156
vt 0.543966 0.771860
vt 0.880339 0.762156
vt 0.140451 0.779800
vt 0.617906 0.318872
vt 0.955131 0.965692
vt 0.852363 0.659469
vt 0.088221 0.793222
vt 0.127182 0.791204
vt 0.617906 0.336369
vt 0.543966 0.889497
vt 0.839093 0.648065
vt 0.904277 0.762156
vt 0.483028 0.667154
vt 0.593968 0.318872
vt 0.931193 0.965692
vt 0.179648 0.779800
vt 0.112159 0.793222
vt 0.469758 0.655750
vt 0.593968 0.336369
vt 0.567905 0.889497
vt 0.166378 0.791204
vt 0.848067 0.737381
vt 0.955131 0.885368
vt 0.845167 0.729630
vt 0.955131 0.893643
vt 0.842980 0.721581
vt 0.955131 0.901984
vt 0.841988 0.713033
vt 0.955131 0.910590
vt 0.841752 0.704167
vt 0.955131 0.919459
vt 0.842273 0.694985
vt 0.955131 0.928656
vt 0.843987 0.685303
vt 0.955131 0.938489
vt 0.846416 0.675322
vt 0.955131 0.948761
vt 0.175352 0.701888
vt 0.931193 0.885368
vt 0.172451 0.709638
vt 0.931193 0.893643
vt 0.170265 0.717687
vt 0.931193 0.901984
vt 0.169273 0.726236
vt 0.931193 0.910590
vt 0.169037 0.735102
vt 0.931193 0.919459
vt 0.169558 0.744284
vt 0.931193 0.928656
vt 0.171272 0.753966
vt 0.931193 0.938489
vt 0.173701 0.763947
vt 0.931193 0.948761
vt 0.162715 0.688051
vt 0.567905 0.783321
vt 0.158560 0.698780
vt 0.567905 0.794827
vt 0.155055 0.709782
vt 0.567905 0.806373
vt 0.153508 0.721603
vt 0.567905 0.818295
vt 0.153375 0.734016
vt 0.567905 0.830709
vt 0.154656 0.747022
vt 0.567905 0.843778
vt 0.157896 0.760847
vt 0.567905 0.857977
vt 0.161785 0.774945
vt 0.567905 0.872602
vt 0.835430 0.751218
vt 0.543966 0.783321
vt 0.831275 0.740488
vt 0.543966 0.794827
vt 0.827770 0.729487
vt 0.543966 0.806373
vt 0.826223 0.717666
vt 0.543966 0.818295
vt 0.826090 0.705252
vt 0.543966 0.830709
vt 0.827371 0.692247
vt 0.543966 0.843778
vt 0.830611 0.678422
vt 0.543966 0.857977
vt 0.834500 0.664324
vt 0.543966 0.872602
vt 0.112159 0.936816
vt 0.787692 0.699180
vt 0.854382 0.880285
vt 0.091430 0.936816
vt 0.774181 0.683458
vt 0.138116 0.793222
vt 0.112159 0.912878
vt 0.511320 0.870229
vt 0.878320 0.880285
vt 0.091430 0.912878
vt 0.497809 0.885951
vt 0.114178 0.793222
vt 0.826090 0.970630
vt 0.055575 0.779800
vt 0.643863 0.318872
vt 0.878320 0.970630
vt 0.511320 0.783264
vt 0.882674 0.764175
vt 0.042305 0.791204
vt 0.643863 0.336369
vt 0.114178 0.910859
vt 0.498050 0.771860
vt 0.850028 0.970630
vt 0.511320 0.667154
vt 0.619925 0.318872
vt 0.854382 0.970630
vt 0.787692 0.786145
vt 0.906612 0.764175
vt 0.498050 0.655750
vt 0.619925 0.336369
vt 0.138116 0.910859
vt 0.774422 0.797549
vt 0.507024 0.861175
vt 0.878320 0.890306
vt 0.504124 0.853425
vt 0.878320 0.898581
vt 0.501937 0.845376
vt 0.878320 0.906922
vt 0.500945 0.836827
vt 0.878320 0.915528
vt 0.500709 0.827962
vt 0.878320 0.924397
vt 0.501230 0.818779
vt 0.878320 0.933594
vt 0.502944 0.809097
vt 0.878320 0.943427
vt 0.505373 0.799116
vt 0.878320 0.953699
vt 0.783396 0.708234
vt 0.854382 0.890306
vt 0.780495 0.715984
vt 0.854382 0.898581
vt 0.778309 0.724033
vt 0.854382 0.906922
vt 0.777317 0.732581
vt 0.854382 0.915528
vt 0.777081 0.741447
vt 0.854382 0.924397
vt 0.777601 0.750629
vt 0.854382 0.933594
vt 0.779316 0.760312
vt 0.854382 0.943427
vt 0.781744 0.770293
vt 0.854382 0.953699
vt 0.770759 0.694396
vt 0.138116 0.804684
vt 0.766604 0.705126
vt 0.138116 0.816189
vt 0.763099 0.716127
vt 0.138116 0.827736
vt 0.761551 0.727948
vt 0.138116 0.839658
vt 0.761419 0.740362
vt 0.138116 0.852072
vt 0.762700 0.753367
vt 0.138116 0.865140
vt 0.765939 0.767192
vt 0.138116 0.879340
vt 0.769829 0.781290
vt 0.138116 0.893964
vt 0.494387 0.875012
vt 0.114178 0.804684
vt 0.490232 0.864283
vt 0.114178 0.816189
vt 0.486727 0.853282
vt 0.114178 0.827736
vt 0.485180 0.841460
vt 0.114178 0.839658
vt 0.485047 0.829047
vt 0.114178 0.852072
vt 0.486328 0.816042
vt 0.114178 0.865140
vt 0.489568 0.802216
vt 0.114178 0.879340
vt 0.493457 0.788119
vt 0.114178 0.893964
vt 0.894980 0.657905
vt 0.682282 0.609561
vt 0.780708 0.681439
vt 0.894980 0.669792
vt 0.670395 0.609561
vt 0.802017 0.339855
vt 0.875690 0.657905
vt 0.184379 0.338267
vt 0.761419 0.681439
vt 0.875690 0.669792
vt 0.196266 0.338267
vt 0.782727 0.339855
vt 0.873672 0.669792
vt 0.682282 0.951149
vt 0.780708 0.339855
vt 0.873672 0.657905
vt 0.670395 0.951149
vt 0.802017 0.681439
vt 0.184380 0.679855
vt 0.854382 0.669792
vt 0.761419 0.339855
vt 0.196266 0.679855
vt 0.854382 0.657905
vt 0.782727 0.681439
vt 0.923107 0.335168
vt 0.520093 0.928263
vt 0.182978 0.720640
vt 0.923107 0.313313
vt 0.541947 0.928263
vt 0.196266 0.681874
vt 0.936395 0.335168
vt 0.461173 0.891516
vt 0.196266 0.720640
vt 0.936395 0.313313
vt 0.483028 0.891516
vt 0.182978 0.681874
vt 0.196266 0.781261
vt 0.520093 0.891516
vt 0.182978 0.757387
vt 0.196266 0.759406
vt 0.541947 0.891516
vt 0.196266 0.718621
vt 0.461173 0.928263
vt 0.182978 0.781261
vt 0.196266 0.757387
vt 0.483028 0.928263
vt 0.182978 0.759406
vt 0.182978 0.718621
s 1
usemtl M_Chest_01
f 125/411/7 124/409/8 143/451/8 144/453/7
f 134/431/9 153/473/9 152/471/10 133/429/10
f 126/413/11 125/411/7 144/453/7 145/455/11
f 135/433/12 154/475/12 153/473/9 134/431/9
f 127/415/13 126/413/11 145/455/11 146/457/13
f 136/435/14 155/477/14 154/475/12 135/433/12
f 128/417/15 127/415/13 146/457/13 147/459/15
f 131/425/16 129/419/17 148/461/17 150/467/16
f 137/437/18 156/479/18 155/477/14 136/435/14
f 129/419/17 128/417/15 147/459/15 148/461/17
f 122/405/19 121/401/20 140/443/20 141/447/19
f 138/439/21 157/481/21 156/479/18 137/437/18
f 131/425/16 150/467/16 158/483/22 139/441/22
f 123/407/23 122/405/19 141/447/19 142/449/23
f 139/441/22 158/483/22 157/481/21 138/439/21
f 132/427/24 151/469/24 149/463/25 130/421/25
f 124/409/8 123/407/23 142/449/23 143/451/8
f 133/429/10 152/471/10 151/469/24 132/427/24
f 131/426/26 139/442/26 138/440/26 137/438/26 136/436/26 135/434/26 134/432/26 133/430/26 132/428/26 130/422/26 121/402/26 122/406/26 123/408/26 124/410/26 125/412/26 126/414/26 127/416/26 128/418/26 129/420/26
f 150/468/27 148/462/27 147/460/27 146/458/27 145/456/27 144/454/27 143/452/27 142/450/27 141/448/27 140/444/27 149/464/27 151/470/27 152/472/27 153/474/27 154/476/27 155/478/27 156/480/27 157/482/27 158/484/27
f 165/499/28 184/541/28 183/539/29 164/497/29
f 173/517/30 172/515/31 191/557/31 192/559/30
f 166/501/32 185/543/32 184/541/28 165/499/28
f 174/519/33 173/517/30 192/559/30 193/561/33
f 167/503/34 186/545/34 185/543/32 166/501/32
f 175/521/35 174/519/33 193/561/33 194/563/35
f 168/505/36 187/547/36 186/545/34 167/503/34
f 160/487/37 179/529/37 178/527/38 159/485/38
f 176/523/39 175/521/35 194/563/35 195/565/39
f 159/485/38 178/527/38 187/547/36 168/505/36
f 162/493/40 181/535/40 180/531/41 161/489/41
f 177/525/42 176/523/39 195/565/39 196/567/42
f 160/487/37 169/507/43 188/549/43 179/529/37
f 163/495/44 182/537/44 181/535/40 162/493/40
f 169/507/43 177/525/42 196/567/42 188/549/43
f 171/513/45 170/509/46 189/551/46 190/555/45
f 164/497/29 183/539/29 182/537/44 163/495/44
f 172/515/31 171/513/45 190/555/45 191/557/31
f 160/488/27 159/486/27 168/506/27 167/504/27 166/502/27 165/500/27 164/498/27 163/496/27 162/494/27 161/490/27 170/510/27 171/514/27 172/516/27 173/518/27 174/520/27 175/522/27 176/524/27 177/526/27 169/508/27
f 179/530/26 188/550/26 196/568/26 195/566/26 194/564/26 193/562/26 192/560/26 191/558/26 190/556/26 189/552/26 180/532/26 181/536/26 182/538/26 183/540/26 184/542/26 185/544/26 186/546/26 187/548/26 178/528/26
f 140/445/16 149/465/16 189/553/16 180/533/16
f 121/403/16 140/446/16 180/534/16 161/491/16
f 130/423/16 121/404/16 161/492/16 170/511/16
f 130/424/37 149/466/37 189/554/46 170/512/46
f 205/593/27 208/602/27 200/578/27 199/575/27
f 213/617/47 216/629/47 204/590/47 203/587/47
f 209/605/26 212/614/26 202/584/26 201/581/26
f 217/633/48 220/645/48 198/572/48 197/569/48
f 227/673/37 209/606/37 201/582/37 218/637/37
f 223/657/16 207/599/16 198/573/16 220/646/16
f 215/625/16 200/579/16 208/603/16 221/649/16
f 221/649/16 208/603/16 207/599/16 223/657/16
f 213/618/37 203/588/37 210/608/37 225/665/37
f 225/665/37 210/608/37 209/606/37 227/673/37
f 203/589/26 204/591/26 211/611/26 210/609/26
f 210/610/26 211/612/26 212/615/26 209/607/26
f 197/570/27 198/574/27 207/600/27 206/596/27
f 206/597/27 207/601/27 208/604/27 205/594/27
f 205/595/37 226/669/37 228/677/37 206/598/37
f 199/576/37 214/621/37 226/669/37 205/595/37
f 214/622/37 213/619/37 225/666/37 226/670/37
f 211/613/16 222/653/16 224/661/16 212/616/16
f 204/592/16 216/630/16 222/653/16 211/613/16
f 216/631/16 215/626/16 221/650/16 222/654/16
f 212/616/16 224/661/16 219/641/16 202/585/16
f 224/662/16 223/658/16 220/647/16 219/642/16
f 206/598/37 228/677/37 217/634/37 197/571/37
f 228/678/37 227/674/37 218/638/37 217/635/37
f 201/583/48 202/586/48 219/643/48 218/639/48
f 218/640/48 219/644/48 220/648/48 217/636/48
f 199/577/47 200/580/47 215/627/47 214/623/47
f 214/624/47 215/628/47 216/632/47 213/620/47
f 224/663/47 227/675/47 228/679/47 223/659/47
f 223/660/26 228/680/26 226/671/26 221/651/26
f 221/652/48 226/672/48 225/667/48 222/655/48
f 222/656/27 225/668/27 227/676/27 224/664/27
f 232/690/37 231/687/49 229/681/49 230/684/37
f 248/724/50 240/708/50 377/997/51 379/1007/51
f 264/756/17 256/740/17 380/1012/52 378/1002/52
f 256/739/27 248/723/27 379/1008/27 380/1013/27
f 240/707/26 264/755/26 378/1003/26 377/998/26
f 231/688/26 232/691/26 257/741/26 233/693/26
f 233/693/26 257/741/26 258/743/26 234/695/26
f 234/695/26 258/743/26 259/745/26 235/697/26
f 235/697/26 259/745/26 260/747/26 236/699/26
f 236/699/26 260/747/26 261/749/26 237/701/26
f 237/701/26 261/749/26 262/751/26 238/703/26
f 238/703/26 262/751/26 263/753/26 239/705/26
f 239/705/26 263/753/26 264/755/26 240/707/26
f 230/685/27 229/682/27 241/709/27 249/725/27
f 249/725/27 241/709/27 242/711/27 250/727/27
f 250/727/27 242/711/27 243/713/27 251/729/27
f 251/729/27 243/713/27 244/715/27 252/731/27
f 252/731/27 244/715/27 245/717/27 253/733/27
f 253/733/27 245/717/27 246/719/27 254/735/27
f 254/735/27 246/719/27 247/721/27 255/737/27
f 255/737/27 247/721/27 248/723/27 256/739/27
f 232/692/53 230/686/53 249/726/54 257/742/54
f 257/742/54 249/726/54 250/728/23 258/744/23
f 258/744/23 250/728/23 251/730/8 259/746/8
f 259/746/8 251/730/8 252/732/7 260/748/7
f 260/748/7 252/732/7 253/734/11 261/750/11
f 261/750/11 253/734/11 254/736/13 262/752/13
f 262/752/13 254/736/13 255/738/15 263/754/15
f 263/754/15 255/738/15 256/740/17 264/756/17
f 229/683/49 231/689/49 233/694/55 241/710/55
f 241/710/55 233/694/55 234/696/56 242/712/56
f 242/712/56 234/696/56 235/698/57 243/714/57
f 243/714/57 235/698/57 236/700/58 244/716/58
f 244/716/58 236/700/58 237/702/59 245/718/59
f 245/718/59 237/702/59 238/704/60 246/720/60
f 246/720/60 238/704/60 239/706/61 247/722/61
f 247/722/61 239/706/61 240/708/50 248/724/50
f 268/766/37 267/763/49 265/757/49 266/760/37
f 284/800/50 276/784/50 417/1093/51 419/1103/51
f 300/832/17 292/816/17 420/1108/52 418/1098/52
f 292/815/27 284/799/27 419/1104/27 420/1109/27
f 276/783/26 300/831/26 418/1099/26 417/1094/26
f 267/764/26 268/767/26 293/817/26 269/769/26
f 269/769/26 293/817/26 294/819/26 270/771/26
f 270/771/26 294/819/26 295/821/26 271/773/26
f 271/773/26 295/821/26 296/823/26 272/775/26
f 272/775/26 296/823/26 297/825/26 273/777/26
f 273/777/26 297/825/26 298/827/26 274/779/26
f 274/779/26 298/827/26 299/829/26 275/781/26
f 275/781/26 299/829/26 300/831/26 276/783/26
f 266/761/27 265/758/27 277/785/27 285/801/27
f 285/801/27 277/785/27 278/787/27 286/803/27
f 286/803/27 278/787/27 279/789/27 287/805/27
f 287/805/27 279/789/27 280/791/27 288/807/27
f 288/807/27 280/791/27 281/793/27 289/809/27
f 289/809/27 281/793/27 282/795/27 290/811/27
f 290/811/27 282/795/27 283/797/27 291/813/27
f 291/813/27 283/797/27 284/799/27 292/815/27
f 268/768/53 266/762/53 285/802/54 293/818/54
f 293/818/54 285/802/54 286/804/23 294/820/23
f 294/820/23 286/804/23 287/806/8 295/822/8
f 295/822/8 287/806/8 288/808/7 296/824/7
f 296/824/7 288/808/7 289/810/11 297/826/11
f 297/826/11 289/810/11 290/812/13 298/828/13
f 298/828/13 290/812/13 291/814/15 299/830/15
f 299/830/15 291/814/15 292/816/17 300/832/17
f 265/759/49 267/765/49 269/770/55 277/786/55
f 277/786/55 269/770/55 270/772/56 278/788/56
f 278/788/56 270/772/56 271/774/57 279/790/57
f 279/790/57 271/774/57 272/776/58 280/792/58
f 280/792/58 272/776/58 273/778/59 281/794/59
f 281/794/59 273/778/59 274/780/60 282/796/60
f 282/796/60 274/780/60 275/782/61 283/798/61
f 283/798/61 275/782/61 276/784/50 284/800/50
f 304/842/37 302/836/37 301/833/49 303/839/49
f 320/876/50 459/1199/51 457/1189/51 312/860/50
f 336/908/17 458/1194/52 460/1204/52 328/892/17
f 328/891/26 460/1205/26 459/1200/26 320/875/26
f 312/859/27 457/1190/27 458/1195/27 336/907/27
f 303/840/27 305/845/27 329/893/27 304/843/27
f 305/845/27 306/847/27 330/895/27 329/893/27
f 306/847/27 307/849/27 331/897/27 330/895/27
f 307/849/27 308/851/27 332/899/27 331/897/27
f 308/851/27 309/853/27 333/901/27 332/899/27
f 309/853/27 310/855/27 334/903/27 333/901/27
f 310/855/27 311/857/27 335/905/27 334/903/27
f 311/857/27 312/859/27 336/907/27 335/905/27
f 302/837/26 321/877/26 313/861/26 301/834/26
f 321/877/26 322/879/26 314/863/26 313/861/26
f 322/879/26 323/881/26 315/865/26 314/863/26
f 323/881/26 324/883/26 316/867/26 315/865/26
f 324/883/26 325/885/26 317/869/26 316/867/26
f 325/885/26 326/887/26 318/871/26 317/869/26
f 326/887/26 327/889/26 319/873/26 318/871/26
f 327/889/26 328/891/26 320/875/26 319/873/26
f 304/844/53 329/894/54 321/878/54 302/838/53
f 329/894/54 330/896/23 322/880/23 321/878/54
f 330/896/23 331/898/8 323/882/8 322/880/23
f 331/898/8 332/900/7 324/884/7 323/882/8
f 332/900/7 333/902/11 325/886/11 324/884/7
f 333/902/11 334/904/13 326/888/13 325/886/11
f 334/904/13 335/906/15 327/890/15 326/888/13
f 335/906/15 336/908/17 328/892/17 327/890/15
f 301/835/49 313/862/55 305/846/55 303/841/49
f 313/862/55 314/864/56 306/848/56 305/846/55
f 314/864/56 315/866/57 307/850/57 306/848/56
f 315/866/57 316/868/58 308/852/58 307/850/57
f 316/868/58 317/870/59 309/854/59 308/852/58
f 317/870/59 318/872/60 310/856/60 309/854/59
f 318/872/60 319/874/61 311/858/61 310/856/60
f 319/874/61 320/876/50 312/860/50 311/858/61
f 340/918/37 338/912/37 337/909/49 339/915/49
f 356/952/50 499/1295/51 497/1285/51 348/936/50
f 372/984/17 498/1290/52 500/1300/52 364/968/17
f 364/967/26 500/1301/26 499/1296/26 356/951/26
f 348/935/27 497/1286/27 498/1291/27 372/983/27
f 339/916/27 341/921/27 365/969/27 340/919/27
f 341/921/27 342/923/27 366/971/27 365/969/27
f 342/923/27 343/925/27 367/973/27 366/971/27
f 343/925/27 344/927/27 368/975/27 367/973/27
f 344/927/27 345/929/27 369/977/27 368/975/27
f 345/929/27 346/931/27 370/979/27 369/977/27
f 346/931/27 347/933/27 371/981/27 370/979/27
f 347/933/27 348/935/27 372/983/27 371/981/27
f 338/913/26 357/953/26 349/937/26 337/910/26
f 357/953/26 358/955/26 350/939/26 349/937/26
f 358/955/26 359/957/26 351/941/26 350/939/26
f 359/957/26 360/959/26 352/943/26 351/941/26
f 360/959/26 361/961/26 353/945/26 352/943/26
f 361/961/26 362/963/26 354/947/26 353/945/26
f 362/963/26 363/965/26 355/949/26 354/947/26
f 363/965/26 364/967/26 356/951/26 355/949/26
f 340/920/53 365/970/54 357/954/54 338/914/53
f 365/970/54 366/972/23 358/956/23 357/954/54
f 366/972/23 367/974/8 359/958/8 358/956/23
f 367/974/8 368/976/7 360/960/7 359/958/8
f 368/976/7 369/978/11 361/962/11 360/960/7
f 369/978/11 370/980/13 362/964/13 361/962/11
f 370/980/13 371/982/15 363/966/15 362/964/13
f 371/982/15 372/984/17 364/968/17 363/966/15
f 337/911/49 349/938/55 341/922/55 339/917/49
f 349/938/55 350/940/56 342/924/56 341/922/55
f 350/940/56 351/942/57 343/926/57 342/924/56
f 351/942/57 352/944/58 344/928/58 343/926/57
f 352/944/58 353/946/59 345/930/59 344/928/58
f 353/946/59 354/948/60 346/932/60 345/930/59
f 354/948/60 355/950/61 347/934/61 346/932/60
f 355/950/61 356/952/50 348/936/50 347/934/61
f 376/994/37 374/988/37 373/985/62 375/991/62
f 377/999/47 379/1009/47 380/1014/47 378/1004/47
f 396/1048/63 379/1010/64 377/1000/64 388/1032/63
f 412/1080/22 378/1005/65 380/1015/65 404/1064/22
f 404/1063/27 380/1016/27 379/1011/27 396/1047/27
f 388/1031/26 377/1001/26 378/1006/26 412/1079/26
f 375/992/26 381/1017/26 405/1065/26 376/995/26
f 381/1017/26 382/1019/26 406/1067/26 405/1065/26
f 382/1019/26 383/1021/26 407/1069/26 406/1067/26
f 383/1021/26 384/1023/26 408/1071/26 407/1069/26
f 384/1023/26 385/1025/26 409/1073/26 408/1071/26
f 385/1025/26 386/1027/26 410/1075/26 409/1073/26
f 386/1027/26 387/1029/26 411/1077/26 410/1075/26
f 387/1029/26 388/1031/26 412/1079/26 411/1077/26
f 374/989/27 397/1049/27 389/1033/27 373/986/27
f 397/1049/27 398/1051/27 390/1035/27 389/1033/27
f 398/1051/27 399/1053/27 391/1037/27 390/1035/27
f 399/1053/27 400/1055/27 392/1039/27 391/1037/27
f 400/1055/27 401/1057/27 393/1041/27 392/1039/27
f 401/1057/27 402/1059/27 394/1043/27 393/1041/27
f 402/1059/27 403/1061/27 395/1045/27 394/1043/27
f 403/1061/27 404/1063/27 396/1047/27 395/1045/27
f 376/996/66 405/1066/67 397/1050/67 374/990/66
f 405/1066/67 406/1068/10 398/1052/10 397/1050/67
f 406/1068/10 407/1070/9 399/1054/9 398/1052/10
f 407/1070/9 408/1072/12 400/1056/12 399/1054/9
f 408/1072/12 409/1074/14 401/1058/14 400/1056/12
f 409/1074/14 410/1076/18 402/1060/18 401/1058/14
f 410/1076/18 411/1078/21 403/1062/21 402/1060/18
f 411/1078/21 412/1080/22 404/1064/22 403/1062/21
f 373/987/62 389/1034/68 381/1018/68 375/993/62
f 389/1034/68 390/1036/69 382/1020/69 381/1018/68
f 390/1036/69 391/1038/70 383/1022/70 382/1020/69
f 391/1038/70 392/1040/71 384/1024/71 383/1022/70
f 392/1040/71 393/1042/72 385/1026/72 384/1024/71
f 393/1042/72 394/1044/73 386/1028/73 385/1026/72
f 394/1044/73 395/1046/74 387/1030/74 386/1028/73
f 395/1046/74 396/1048/63 388/1032/63 387/1030/74
f 416/1090/37 414/1084/37 413/1081/62 415/1087/62
f 417/1095/47 419/1105/47 420/1110/47 418/1100/47
f 436/1144/63 419/1106/64 417/1096/64 428/1128/63
f 452/1176/22 418/1101/65 420/1111/65 444/1160/22
f 444/1159/27 420/1112/27 419/1107/27 436/1143/27
f 428/1127/26 417/1097/26 418/1102/26 452/1175/26
f 415/1088/26 421/1113/26 445/1161/26 416/1091/26
f 421/1113/26 422/1115/26 446/1163/26 445/1161/26
f 422/1115/26 423/1117/26 447/1165/26 446/1163/26
f 423/1117/26 424/1119/26 448/1167/26 447/1165/26
f 424/1119/26 425/1121/26 449/1169/26 448/1167/26
f 425/1121/26 426/1123/26 450/1171/26 449/1169/26
f 426/1123/26 427/1125/26 451/1173/26 450/1171/26
f 427/1125/26 428/1127/26 452/1175/26 451/1173/26
f 414/1085/27 437/1145/27 429/1129/27 413/1082/27
f 437/1145/27 438/1147/27 430/1131/27 429/1129/27
f 438/1147/27 439/1149/27 431/1133/27 430/1131/27
f 439/1149/27 440/1151/27 432/1135/27 431/1133/27
f 440/1151/27 441/1153/27 433/1137/27 432/1135/27
f 441/1153/27 442/1155/27 434/1139/27 433/1137/27
f 442/1155/27 443/1157/27 435/1141/27 434/1139/27
f 443/1157/27 444/1159/27 436/1143/27 435/1141/27
f 416/1092/66 445/1162/67 437/1146/67 414/1086/66
f 445/1162/67 446/1164/10 438/1148/10 437/1146/67
f 446/1164/10 447/1166/9 439/1150/9 438/1148/10
f 447/1166/9 448/1168/12 440/1152/12 439/1150/9
f 448/1168/12 449/1170/14 441/1154/14 440/1152/12
f 449/1170/14 450/1172/18 442/1156/18 441/1154/14
f 450/1172/18 451/1174/21 443/1158/21 442/1156/18
f 451/1174/21 452/1176/22 444/1160/22 443/1158/21
f 413/1083/62 429/1130/68 421/1114/68 415/1089/62
f 429/1130/68 430/1132/69 422/1116/69 421/1114/68
f 430/1132/69 431/1134/70 423/1118/70 422/1116/69
f 431/1134/70 432/1136/71 424/1120/71 423/1118/70
f 432/1136/71 433/1138/72 425/1122/72 424/1120/71
f 433/1138/72 434/1140/73 426/1124/73 425/1122/72
f 434/1140/73 435/1142/74 427/1126/74 426/1124/73
f 435/1142/74 436/1144/63 428/1128/63 427/1126/74
f 456/1186/37 455/1183/62 453/1177/62 454/1180/37
f 457/1191/47 458/1196/47 460/1206/47 459/1201/47
f 476/1240/63 468/1224/63 457/1192/64 459/1202/64
f 492/1272/22 484/1256/22 460/1207/65 458/1197/65
f 484/1255/26 476/1239/26 459/1203/26 460/1208/26
f 468/1223/27 492/1271/27 458/1198/27 457/1193/27
f 455/1184/27 456/1187/27 485/1257/27 461/1209/27
f 461/1209/27 485/1257/27 486/1259/27 462/1211/27
f 462/1211/27 486/1259/27 487/1261/27 463/1213/27
f 463/1213/27 487/1261/27 488/1263/27 464/1215/27
f 464/1215/27 488/1263/27 489/1265/27 465/1217/27
f 465/1217/27 489/1265/27 490/1267/27 466/1219/27
f 466/1219/27 490/1267/27 491/1269/27 467/1221/27
f 467/1221/27 491/1269/27 492/1271/27 468/1223/27
f 454/1181/26 453/1178/26 469/1225/26 477/1241/26
f 477/1241/26 469/1225/26 470/1227/26 478/1243/26
f 478/1243/26 470/1227/26 471/1229/26 479/1245/26
f 479/1245/26 471/1229/26 472/1231/26 480/1247/26
f 480/1247/26 472/1231/26 473/1233/26 481/1249/26
f 481/1249/26 473/1233/26 474/1235/26 482/1251/26
f 482/1251/26 474/1235/26 475/1237/26 483/1253/26
f 483/1253/26 475/1237/26 476/1239/26 484/1255/26
f 456/1188/66 454/1182/66 477/1242/67 485/1258/67
f 485/1258/67 477/1242/67 478/1244/10 486/1260/10
f 486/1260/10 478/1244/10 479/1246/9 487/1262/9
f 487/1262/9 479/1246/9 480/1248/12 488/1264/12
f 488/1264/12 480/1248/12 481/1250/14 489/1266/14
f 489/1266/14 481/1250/14 482/1252/18 490/1268/18
f 490/1268/18 482/1252/18 483/1254/21 491/1270/21
f 491/1270/21 483/1254/21 484/1256/22 492/1272/22
f 453/1179/62 455/1185/62 461/1210/68 469/1226/68
f 469/1226/68 461/1210/68 462/1212/69 470/1228/69
f 470/1228/69 462/1212/69 463/1214/70 471/1230/70
f 471/1230/70 463/1214/70 464/1216/71 472/1232/71
f 472/1232/71 464/1216/71 465/1218/72 473/1234/72
f 473/1234/72 465/1218/72 466/1220/73 474/1236/73
f 474/1236/73 466/1220/73 467/1222/74 475/1238/74
f 475/1238/74 467/1222/74 468/1224/63 476/1240/63
f 496/1282/37 495/1279/62 493/1273/62 494/1276/37
f 497/1287/47 498/1292/47 500/1302/47 499/1297/47
f 516/1336/63 508/1320/63 497/1288/64 499/1298/64
f 532/1368/22 524/1352/22 500/1303/65 498/1293/65
f 524/1351/26 516/1335/26 499/1299/26 500/1304/26
f 508/1319/27 532/1367/27 498/1294/27 497/1289/27
f 495/1280/27 496/1283/27 525/1353/27 501/1305/27
f 501/1305/27 525/1353/27 526/1355/27 502/1307/27
f 502/1307/27 526/1355/27 527/1357/27 503/1309/27
f 503/1309/27 527/1357/27 528/1359/27 504/1311/27
f 504/1311/27 528/1359/27 529/1361/27 505/1313/27
f 505/1313/27 529/1361/27 530/1363/27 506/1315/27
f 506/1315/27 530/1363/27 531/1365/27 507/1317/27
f 507/1317/27 531/1365/27 532/1367/27 508/1319/27
f 494/1277/26 493/1274/26 509/1321/26 517/1337/26
f 517/1337/26 509/1321/26 510/1323/26 518/1339/26
f 518/1339/26 510/1323/26 511/1325/26 519/1341/26
f 519/1341/26 511/1325/26 512/1327/26 520/1343/26
f 520/1343/26 512/1327/26 513/1329/26 521/1345/26
f 521/1345/26 513/1329/26 514/1331/26 522/1347/26
f 522/1347/26 514/1331/26 515/1333/26 523/1349/26
f 523/1349/26 515/1333/26 516/1335/26 524/1351/26
f 496/1284/66 494/1278/66 517/1338/67 525/1354/67
f 525/1354/67 517/1338/67 518/1340/10 526/1356/10
f 526/1356/10 518/1340/10 519/1342/9 527/1358/9
f 527/1358/9 519/1342/9 520/1344/12 528/1360/12
f 528/1360/12 520/1344/12 521/1346/14 529/1362/14
f 529/1362/14 521/1346/14 522/1348/18 530/1364/18
f 530/1364/18 522/1348/18 523/1350/21 531/1366/21
f 531/1366/21 523/1350/21 524/1352/22 532/1368/22
f 493/1275/62 495/1281/62 501/1306/68 509/1322/68
f 509/1322/68 501/1306/68 502/1308/69 510/1324/69
f 510/1324/69 502/1308/69 503/1310/70 511/1326/70
f 511/1326/70 503/1310/70 504/1312/71 512/1328/71
f 512/1328/71 504/1312/71 505/1314/72 513/1330/72
f 513/1330/72 505/1314/72 506/1316/73 514/1332/73
f 514/1332/73 506/1316/73 507/1318/74 515/1334/74
f 515/1334/74 507/1318/74 508/1320/63 516/1336/63
f 533/1369/27 534/1372/27 536/1378/27 535/1375/27
f 535/1376/47 536/1379/47 540/1390/47 539/1387/47
f 539/1388/26 540/1391/26 538/1384/26 537/1381/26
f 537/1382/48 538/1385/48 534/1373/48 533/1370/48
f 535/1377/37 539/1389/37 537/1383/37 533/1371/37
f 540/1392/16 536/1380/16 534/1374/16 538/1386/16
f 541/1393/27 542/1396/27 544/1402/27 543/1399/27
f 543/1400/47 544/1403/47 548/1414/47 547/1411/47
f 547/1412/26 548/1415/26 546/1408/26 545/1405/26
f 545/1406/48 546/1409/48 542/1397/48 541/1394/48
f 543/1401/37 547/1413/37 545/1407/37 541/1395/37
f 548/1416/16 544/1404/16 542/1398/16 546/1410/16
