{
	"asset":{
		"generator":"Khronos glTF Blender I/O v4.0.44",
		"version":"2.0"
	},
	"scene":0,
	"scenes":[
		{
			"name":"Scene",
			"nodes":[
				0,
				1,
				2,
				3
			]
		}
	],
	"nodes":[
		{
			"mesh":0,
			"name":"Plane",
			"translation":[
				0,
				-0.9801042675971985,
				0
			]
		},
		{
			"mesh":1,
			"name":"Cube",
			"translation":[
				3.0090465545654297,
				0,
				0
			]
		},
		{
			"mesh":2,
			"name":"Sphere",
			"translation":[
				0.05515432357788086,
				0,
				0
			]
		},
		{
			"mesh":3,
			"name":"Suzanne",
			"translation":[
				-2.9102938175201416,
				0,
				0
			]
		}
	],
	"materials":[
		{
			"doubleSided":true,
			"name":"Material",
			"pbrMetallicRoughness":{
				"baseColorTexture":{
					"index":0
				},
				"metallicFactor":0,
				"roughnessFactor":0.5
			}
		},
		{
			"doubleSided":true,
			"name":"Orange",
			"pbrMetallicRoughness":{
				"baseColorFactor":[
					0.8002511262893677,
					0.12385629117488861,
					0,
					1
				],
				"metallicFactor":0,
				"roughnessFactor":0.331818163394928
			}
		},
		{
			"doubleSided":true,
			"name":"RedMtl",
			"pbrMetallicRoughness":{
				"baseColorFactor":[
					0.8002121448516846,
					0.008573329076170921,
					0.018272599205374718,
					1
				],
				"metallicFactor":0.15000000596046448,
				"roughnessFactor":0.7863636016845703
			}
		},
		{
			"doubleSided":true,
			"name":"BlueMtl",
			"pbrMetallicRoughness":{
				"baseColorFactor":[
					0.03210239112377167,
					0.031000027433037758,
					0.8002588152885437,
					1
				],
				"metallicFactor":0,
				"roughnessFactor":0.5
			}
		}
	],
	"meshes":[
		{
			"name":"Plane",
			"primitives":[
				{
					"attributes":{
						"POSITION":0,
						"NORMAL":1,
						"TEXCOORD_0":2
					},
					"indices":3,
					"material":0
				}
			]
		},
		{
			"name":"Cube.001",
			"primitives":[
				{
					"attributes":{
						"POSITION":4,
						"NORMAL":5,
						"TEXCOORD_0":6
					},
					"indices":7,
					"material":1
				}
			]
		},
		{
			"name":"Sphere",
			"primitives":[
				{
					"attributes":{
						"POSITION":8,
						"NORMAL":9,
						"TEXCOORD_0":10
					},
					"indices":11,
					"material":2
				}
			]
		},
		{
			"name":"Suzanne",
			"primitives":[
				{
					"attributes":{
						"POSITION":12,
						"NORMAL":13,
						"TEXCOORD_0":14
					},
					"indices":15,
					"material":3
				}
			]
		}
	],
	"textures":[
		{
			"sampler":0,
			"source":0
		}
	],
	"images":[
		{
			"mimeType":"image/png",
			"name":"SplashScreen",
			"uri":"Textures/SplashScreen.png"
		}
	],
	"accessors":[
		{
			"bufferView":0,
			"componentType":5126,
			"count":4,
			"max":[
				5,
				0,
				5
			],
			"min":[
				-5,
				0,
				-5
			],
			"type":"VEC3"
		},
		{
			"bufferView":1,
			"componentType":5126,
			"count":4,
			"type":"VEC3"
		},
		{
			"bufferView":2,
			"componentType":5126,
			"count":4,
			"type":"VEC2"
		},
		{
			"bufferView":3,
			"componentType":5123,
			"count":6,
			"type":"SCALAR"
		},
		{
			"bufferView":4,
			"componentType":5126,
			"count":24,
			"max":[
				1,
				1,
				1
			],
			"min":[
				-1,
				-1,
				-1
			],
			"type":"VEC3"
		},
		{
			"bufferView":5,
			"componentType":5126,
			"count":24,
			"type":"VEC3"
		},
		{
			"bufferView":6,
			"componentType":5126,
			"count":24,
			"type":"VEC2"
		},
		{
			"bufferView":7,
			"componentType":5123,
			"count":36,
			"type":"SCALAR"
		},
		{
			"bufferView":8,
			"componentType":5126,
			"count":126976,
			"max":[
				0.9872310161590576,
				0.9975767135620117,
				0.9872307181358337
			],
			"min":[
				-0.9872305393218994,
				-0.9975767135620117,
				-0.9872310161590576
			],
			"type":"VEC3"
		},
		{
			"bufferView":9,
			"componentType":5126,
			"count":126976,
			"type":"VEC3"
		},
		{
			"bufferView":10,
			"componentType":5126,
			"count":126976,
			"type":"VEC2"
		},
		{
			"bufferView":11,
			"componentType":5125,
			"count":190464,
			"type":"SCALAR"
		},
		{
			"bufferView":12,
			"componentType":5126,
			"count":1966,
			"max":[
				1.3671875,
				0.984375,
				0.8515625
			],
			"min":[
				-1.3671875,
				-0.984375,
				-0.8515625
			],
			"type":"VEC3"
		},
		{
			"bufferView":13,
			"componentType":5126,
			"count":1966,
			"type":"VEC3"
		},
		{
			"bufferView":14,
			"componentType":5126,
			"count":1966,
			"type":"VEC2"
		},
		{
			"bufferView":15,
			"componentType":5123,
			"count":2904,
			"type":"SCALAR"
		}
	],
	"bufferViews":[
		{
			"buffer":0,
			"byteLength":48,
			"byteOffset":0,
			"target":34962
		},
		{
			"buffer":0,
			"byteLength":48,
			"byteOffset":48,
			"target":34962
		},
		{
			"buffer":0,
			"byteLength":32,
			"byteOffset":96,
			"target":34962
		},
		{
			"buffer":0,
			"byteLength":12,
			"byteOffset":128,
			"target":34963
		},
		{
			"buffer":0,
			"byteLength":288,
			"byteOffset":140,
			"target":34962
		},
		{
			"buffer":0,
			"byteLength":288,
			"byteOffset":428,
			"target":34962
		},
		{
			"buffer":0,
			"byteLength":192,
			"byteOffset":716,
			"target":34962
		},
		{
			"buffer":0,
			"byteLength":72,
			"byteOffset":908,
			"target":34963
		},
		{
			"buffer":0,
			"byteLength":1523712,
			"byteOffset":980,
			"target":34962
		},
		{
			"buffer":0,
			"byteLength":1523712,
			"byteOffset":1524692,
			"target":34962
		},
		{
			"buffer":0,
			"byteLength":1015808,
			"byteOffset":3048404,
			"target":34962
		},
		{
			"buffer":0,
			"byteLength":761856,
			"byteOffset":4064212,
			"target":34963
		},
		{
			"buffer":0,
			"byteLength":23592,
			"byteOffset":4826068,
			"target":34962
		},
		{
			"buffer":0,
			"byteLength":23592,
			"byteOffset":4849660,
			"target":34962
		},
		{
			"buffer":0,
			"byteLength":15728,
			"byteOffset":4873252,
			"target":34962
		},
		{
			"buffer":0,
			"byteLength":5808,
			"byteOffset":4888980,
			"target":34963
		}
	],
	"samplers":[
		{
			"magFilter":9729,
			"minFilter":9987
		}
	],
	"buffers":[
		{
			"byteLength":4894788,
			"uri":"DemoScene.bin"
		}
	]
}
